%TF.GenerationSoftware,KiCad,Pcbnew,8.0.5*%
%TF.CreationDate,2025-10-26T06:58:02+01:00*%
%TF.ProjectId,sop8,736f7038-2e6b-4696-9361-645f70636258,rev?*%
%TF.SameCoordinates,Original*%
%TF.FileFunction,Copper,L1,Top*%
%TF.FilePolarity,Positive*%
%FSLAX46Y46*%
G04 Gerber Fmt 4.6, Leading zero omitted, Abs format (unit mm)*
G04 Created by KiCad (PCBNEW 8.0.5) date 2025-10-26 06:58:02*
%MOMM*%
%LPD*%
G01*
G04 APERTURE LIST*
G04 Aperture macros list*
%AMRoundRect*
0 Rectangle with rounded corners*
0 $1 Rounding radius*
0 $2 $3 $4 $5 $6 $7 $8 $9 X,Y pos of 4 corners*
0 Add a 4 corners polygon primitive as box body*
4,1,4,$2,$3,$4,$5,$6,$7,$8,$9,$2,$3,0*
0 Add four circle primitives for the rounded corners*
1,1,$1+$1,$2,$3*
1,1,$1+$1,$4,$5*
1,1,$1+$1,$6,$7*
1,1,$1+$1,$8,$9*
0 Add four rect primitives between the rounded corners*
20,1,$1+$1,$2,$3,$4,$5,0*
20,1,$1+$1,$4,$5,$6,$7,0*
20,1,$1+$1,$6,$7,$8,$9,0*
20,1,$1+$1,$8,$9,$2,$3,0*%
G04 Aperture macros list end*
%TA.AperFunction,SMDPad,CuDef*%
%ADD10RoundRect,0.162500X-0.825000X-0.162500X0.825000X-0.162500X0.825000X0.162500X-0.825000X0.162500X0*%
%TD*%
%TA.AperFunction,ComponentPad*%
%ADD11R,1.700000X1.700000*%
%TD*%
%TA.AperFunction,ComponentPad*%
%ADD12O,1.700000X1.700000*%
%TD*%
%TA.AperFunction,Conductor*%
%ADD13C,0.200000*%
%TD*%
G04 APERTURE END LIST*
D10*
%TO.P,U1,8,8*%
%TO.N,Net-(J1-Pin_4)*%
X154940000Y-95250000D03*
%TO.P,U1,7,7*%
%TO.N,Net-(J1-Pin_3)*%
X154940000Y-96520000D03*
%TO.P,U1,6,6*%
%TO.N,Net-(J1-Pin_2)*%
X154940000Y-97790000D03*
%TO.P,U1,5,5*%
%TO.N,Net-(J1-Pin_1)*%
X154940000Y-99060000D03*
%TO.P,U1,4,4*%
%TO.N,Net-(J2-Pin_4)*%
X149865000Y-99060000D03*
%TO.P,U1,3,3*%
%TO.N,Net-(J2-Pin_3)*%
X149865000Y-97790000D03*
%TO.P,U1,2,2*%
%TO.N,Net-(J2-Pin_2)*%
X149865000Y-96520000D03*
%TO.P,U1,1,1*%
%TO.N,Net-(J2-Pin_1)*%
X149865000Y-95250000D03*
%TD*%
D11*
%TO.P,J2,1,Pin_1*%
%TO.N,Net-(J2-Pin_1)*%
X144780000Y-93980000D03*
D12*
%TO.P,J2,2,Pin_2*%
%TO.N,Net-(J2-Pin_2)*%
X144780000Y-96520000D03*
%TO.P,J2,3,Pin_3*%
%TO.N,Net-(J2-Pin_3)*%
X144780000Y-99060000D03*
%TO.P,J2,4,Pin_4*%
%TO.N,Net-(J2-Pin_4)*%
X144780000Y-101600000D03*
%TD*%
D11*
%TO.P,J1,1,Pin_1*%
%TO.N,Net-(J1-Pin_1)*%
X160020000Y-101600000D03*
D12*
%TO.P,J1,2,Pin_2*%
%TO.N,Net-(J1-Pin_2)*%
X160020000Y-99060000D03*
%TO.P,J1,3,Pin_3*%
%TO.N,Net-(J1-Pin_3)*%
X160020000Y-96520000D03*
%TO.P,J1,4,Pin_4*%
%TO.N,Net-(J1-Pin_4)*%
X160020000Y-93980000D03*
%TD*%
D13*
%TO.N,Net-(J1-Pin_1)*%
X157480000Y-99060000D02*
X160020000Y-101600000D01*
X154940000Y-99060000D02*
X157480000Y-99060000D01*
%TO.N,Net-(J1-Pin_2)*%
X158750000Y-97790000D02*
X160020000Y-99060000D01*
X154940000Y-97790000D02*
X158750000Y-97790000D01*
%TO.N,Net-(J1-Pin_3)*%
X154940000Y-96520000D02*
X160020000Y-96520000D01*
%TO.N,Net-(J1-Pin_4)*%
X156210000Y-95250000D02*
X157480000Y-93980000D01*
X154940000Y-95250000D02*
X156210000Y-95250000D01*
X157480000Y-93980000D02*
X160020000Y-93980000D01*
%TO.N,Net-(J2-Pin_4)*%
X144780000Y-101600000D02*
X147320000Y-99060000D01*
X147320000Y-99060000D02*
X149865000Y-99060000D01*
%TO.N,Net-(J2-Pin_3)*%
X146050000Y-97790000D02*
X149865000Y-97790000D01*
X144780000Y-99060000D02*
X146050000Y-97790000D01*
%TO.N,Net-(J2-Pin_2)*%
X144780000Y-96520000D02*
X149865000Y-96520000D01*
%TO.N,Net-(J2-Pin_1)*%
X148590000Y-95250000D02*
X149865000Y-95250000D01*
X147320000Y-93980000D02*
X148590000Y-95250000D01*
X144780000Y-93980000D02*
X147320000Y-93980000D01*
%TD*%
M02*
