%TF.GenerationSoftware,KiCad,Pcbnew,8.0.5*%
%TF.CreationDate,2025-10-26T06:58:06+01:00*%
%TF.ProjectId,sop8,736f7038-2e6b-4696-9361-645f70636258,rev?*%
%TF.SameCoordinates,Original*%
%TF.FileFunction,Drillmap*%
%TF.FilePolarity,Positive*%
%FSLAX45Y45*%
G04 Gerber Fmt 4.5, Leading zero omitted, Abs format (unit mm)*
G04 Created by KiCad (PCBNEW 8.0.5) date 2025-10-26 06:58:06*
%MOMM*%
%LPD*%
G01*
G04 APERTURE LIST*
%ADD10C,0.050000*%
%ADD11C,0.200000*%
G04 APERTURE END LIST*
D10*
X14224000Y-9144000D02*
X16256000Y-9144000D01*
X16256000Y-10414000D01*
X14224000Y-10414000D01*
X14224000Y-9144000D01*
D11*
X14482277Y-10727984D02*
X14482277Y-10527984D01*
X14482277Y-10527984D02*
X14529896Y-10527984D01*
X14529896Y-10527984D02*
X14558467Y-10537508D01*
X14558467Y-10537508D02*
X14577515Y-10556555D01*
X14577515Y-10556555D02*
X14587039Y-10575603D01*
X14587039Y-10575603D02*
X14596562Y-10613698D01*
X14596562Y-10613698D02*
X14596562Y-10642270D01*
X14596562Y-10642270D02*
X14587039Y-10680365D01*
X14587039Y-10680365D02*
X14577515Y-10699412D01*
X14577515Y-10699412D02*
X14558467Y-10718460D01*
X14558467Y-10718460D02*
X14529896Y-10727984D01*
X14529896Y-10727984D02*
X14482277Y-10727984D01*
X14682277Y-10727984D02*
X14682277Y-10594650D01*
X14682277Y-10632746D02*
X14691801Y-10613698D01*
X14691801Y-10613698D02*
X14701324Y-10604174D01*
X14701324Y-10604174D02*
X14720372Y-10594650D01*
X14720372Y-10594650D02*
X14739420Y-10594650D01*
X14806086Y-10727984D02*
X14806086Y-10594650D01*
X14806086Y-10527984D02*
X14796562Y-10537508D01*
X14796562Y-10537508D02*
X14806086Y-10547031D01*
X14806086Y-10547031D02*
X14815610Y-10537508D01*
X14815610Y-10537508D02*
X14806086Y-10527984D01*
X14806086Y-10527984D02*
X14806086Y-10547031D01*
X14929896Y-10727984D02*
X14910848Y-10718460D01*
X14910848Y-10718460D02*
X14901324Y-10699412D01*
X14901324Y-10699412D02*
X14901324Y-10527984D01*
X15034658Y-10727984D02*
X15015610Y-10718460D01*
X15015610Y-10718460D02*
X15006086Y-10699412D01*
X15006086Y-10699412D02*
X15006086Y-10527984D01*
X15263229Y-10727984D02*
X15263229Y-10527984D01*
X15263229Y-10527984D02*
X15329896Y-10670841D01*
X15329896Y-10670841D02*
X15396562Y-10527984D01*
X15396562Y-10527984D02*
X15396562Y-10727984D01*
X15577515Y-10727984D02*
X15577515Y-10623222D01*
X15577515Y-10623222D02*
X15567991Y-10604174D01*
X15567991Y-10604174D02*
X15548943Y-10594650D01*
X15548943Y-10594650D02*
X15510848Y-10594650D01*
X15510848Y-10594650D02*
X15491801Y-10604174D01*
X15577515Y-10718460D02*
X15558467Y-10727984D01*
X15558467Y-10727984D02*
X15510848Y-10727984D01*
X15510848Y-10727984D02*
X15491801Y-10718460D01*
X15491801Y-10718460D02*
X15482277Y-10699412D01*
X15482277Y-10699412D02*
X15482277Y-10680365D01*
X15482277Y-10680365D02*
X15491801Y-10661317D01*
X15491801Y-10661317D02*
X15510848Y-10651793D01*
X15510848Y-10651793D02*
X15558467Y-10651793D01*
X15558467Y-10651793D02*
X15577515Y-10642270D01*
X15672753Y-10594650D02*
X15672753Y-10794650D01*
X15672753Y-10604174D02*
X15691801Y-10594650D01*
X15691801Y-10594650D02*
X15729896Y-10594650D01*
X15729896Y-10594650D02*
X15748943Y-10604174D01*
X15748943Y-10604174D02*
X15758467Y-10613698D01*
X15758467Y-10613698D02*
X15767991Y-10632746D01*
X15767991Y-10632746D02*
X15767991Y-10689889D01*
X15767991Y-10689889D02*
X15758467Y-10708936D01*
X15758467Y-10708936D02*
X15748943Y-10718460D01*
X15748943Y-10718460D02*
X15729896Y-10727984D01*
X15729896Y-10727984D02*
X15691801Y-10727984D01*
X15691801Y-10727984D02*
X15672753Y-10718460D01*
X15853705Y-10708936D02*
X15863229Y-10718460D01*
X15863229Y-10718460D02*
X15853705Y-10727984D01*
X15853705Y-10727984D02*
X15844182Y-10718460D01*
X15844182Y-10718460D02*
X15853705Y-10708936D01*
X15853705Y-10708936D02*
X15853705Y-10727984D01*
X15853705Y-10604174D02*
X15863229Y-10613698D01*
X15863229Y-10613698D02*
X15853705Y-10623222D01*
X15853705Y-10623222D02*
X15844182Y-10613698D01*
X15844182Y-10613698D02*
X15853705Y-10604174D01*
X15853705Y-10604174D02*
X15853705Y-10623222D01*
M02*
