%TF.GenerationSoftware,KiCad,Pcbnew,10.0.3*%
%TF.CreationDate,2026-06-10T11:57:27+02:00*%
%TF.ProjectId,CH340-USBC,43483334-302d-4555-9342-432e6b696361,rev?*%
%TF.SameCoordinates,Original*%
%TF.FileFunction,Copper,L1,Top*%
%TF.FilePolarity,Positive*%
%FSLAX46Y46*%
G04 Gerber Fmt 4.6, Leading zero omitted, Abs format (unit mm)*
G04 Created by KiCad (PCBNEW 10.0.3) date 2026-06-10 11:57:27*
%MOMM*%
%LPD*%
G01*
G04 APERTURE LIST*
G04 Aperture macros list*
%AMRoundRect*
0 Rectangle with rounded corners*
0 $1 Rounding radius*
0 $2 $3 $4 $5 $6 $7 $8 $9 X,Y pos of 4 corners*
0 Add a 4 corners polygon primitive as box body*
4,1,4,$2,$3,$4,$5,$6,$7,$8,$9,$2,$3,0*
0 Add four circle primitives for the rounded corners*
1,1,$1+$1,$2,$3*
1,1,$1+$1,$4,$5*
1,1,$1+$1,$6,$7*
1,1,$1+$1,$8,$9*
0 Add four rect primitives between the rounded corners*
20,1,$1+$1,$2,$3,$4,$5,0*
20,1,$1+$1,$4,$5,$6,$7,0*
20,1,$1+$1,$6,$7,$8,$9,0*
20,1,$1+$1,$8,$9,$2,$3,0*%
G04 Aperture macros list end*
%TA.AperFunction,SMDPad,CuDef*%
%ADD10RoundRect,0.250000X-0.650000X0.412500X-0.650000X-0.412500X0.650000X-0.412500X0.650000X0.412500X0*%
%TD*%
%TA.AperFunction,SMDPad,CuDef*%
%ADD11R,0.600000X1.240000*%
%TD*%
%TA.AperFunction,SMDPad,CuDef*%
%ADD12R,0.300000X1.240000*%
%TD*%
%TA.AperFunction,ComponentPad*%
%ADD13O,1.000000X2.100000*%
%TD*%
%TA.AperFunction,ComponentPad*%
%ADD14O,1.000000X1.800000*%
%TD*%
%TA.AperFunction,SMDPad,CuDef*%
%ADD15RoundRect,0.250001X0.624999X-0.462499X0.624999X0.462499X-0.624999X0.462499X-0.624999X-0.462499X0*%
%TD*%
%TA.AperFunction,SMDPad,CuDef*%
%ADD16RoundRect,0.250000X0.625000X-0.400000X0.625000X0.400000X-0.625000X0.400000X-0.625000X-0.400000X0*%
%TD*%
%TA.AperFunction,SMDPad,CuDef*%
%ADD17RoundRect,0.150000X0.150000X-0.675000X0.150000X0.675000X-0.150000X0.675000X-0.150000X-0.675000X0*%
%TD*%
%TA.AperFunction,ComponentPad*%
%ADD18R,1.700000X1.700000*%
%TD*%
%TA.AperFunction,ComponentPad*%
%ADD19O,1.700000X1.700000*%
%TD*%
%TA.AperFunction,ViaPad*%
%ADD20C,0.600000*%
%TD*%
%TA.AperFunction,Conductor*%
%ADD21C,0.600000*%
%TD*%
%TA.AperFunction,Conductor*%
%ADD22C,0.300000*%
%TD*%
%TA.AperFunction,Conductor*%
%ADD23C,0.200000*%
%TD*%
G04 APERTURE END LIST*
D10*
%TO.P,C2,1*%
%TO.N,+3V3*%
X143140000Y-107655000D03*
%TO.P,C2,2*%
%TO.N,GND*%
X143140000Y-110780000D03*
%TD*%
D11*
%TO.P,J1,A1,GND*%
%TO.N,GND*%
X146300000Y-116675000D03*
%TO.P,J1,A4,VBUS*%
%TO.N,+5V*%
X147100000Y-116675000D03*
D12*
%TO.P,J1,A5,CC1*%
%TO.N,Net-(J1-CC1)*%
X148250000Y-116675000D03*
%TO.P,J1,A6,D+*%
%TO.N,/D+*%
X149250000Y-116675000D03*
%TO.P,J1,A7,D-*%
%TO.N,/D-*%
X149750000Y-116675000D03*
%TO.P,J1,A8,SBU1*%
%TO.N,unconnected-(J1-SBU1-PadA8)*%
X150750000Y-116675000D03*
D11*
%TO.P,J1,A9,VBUS*%
%TO.N,+5V*%
X151900000Y-116675000D03*
%TO.P,J1,A12,GND*%
%TO.N,GND*%
X152700000Y-116675000D03*
%TO.P,J1,B1,GND*%
X152700000Y-116675000D03*
%TO.P,J1,B4,VBUS*%
%TO.N,+5V*%
X151900000Y-116675000D03*
D12*
%TO.P,J1,B5,CC2*%
%TO.N,Net-(J1-CC2)*%
X151250000Y-116675000D03*
%TO.P,J1,B6,D+*%
%TO.N,unconnected-(J1-D+-PadB6)*%
X150250000Y-116675000D03*
%TO.P,J1,B7,D-*%
%TO.N,unconnected-(J1-D--PadB7)*%
X148750000Y-116675000D03*
%TO.P,J1,B8,SBU2*%
%TO.N,unconnected-(J1-SBU2-PadB8)*%
X147750000Y-116675000D03*
D11*
%TO.P,J1,B9,VBUS*%
%TO.N,+5V*%
X147100000Y-116675000D03*
%TO.P,J1,B12,GND*%
%TO.N,GND*%
X146300000Y-116675000D03*
D13*
%TO.P,J1,S1,SHIELD*%
%TO.N,Earth*%
X145180000Y-117275000D03*
D14*
X145180000Y-121475000D03*
D13*
X153820000Y-117275000D03*
D14*
X153820000Y-121475000D03*
%TD*%
D15*
%TO.P,D1,1,K*%
%TO.N,GND*%
X148020000Y-112197500D03*
%TO.P,D1,2,A*%
%TO.N,Net-(D1-A)*%
X148020000Y-109222500D03*
%TD*%
D16*
%TO.P,R3,1*%
%TO.N,+5V*%
X145680000Y-112290000D03*
%TO.P,R3,2*%
%TO.N,Net-(D1-A)*%
X145680000Y-109190000D03*
%TD*%
D17*
%TO.P,U1,1,UD+*%
%TO.N,/D+*%
X150220000Y-113025000D03*
%TO.P,U1,2,UD-*%
%TO.N,/D-*%
X151490000Y-113025000D03*
%TO.P,U1,3,GND*%
%TO.N,GND*%
X152760000Y-113025000D03*
%TO.P,U1,4,~{RTS}*%
%TO.N,/RTS*%
X154030000Y-113025000D03*
%TO.P,U1,5,VCC*%
%TO.N,+5V*%
X154030000Y-107775000D03*
%TO.P,U1,6,TXD*%
%TO.N,/TX*%
X152760000Y-107775000D03*
%TO.P,U1,7,RXD*%
%TO.N,/RX*%
X151490000Y-107775000D03*
%TO.P,U1,8,V3*%
%TO.N,+3V3*%
X150220000Y-107775000D03*
%TD*%
D18*
%TO.P,J2,1,Pin_1*%
%TO.N,+3V3*%
X143175000Y-102775000D03*
D19*
%TO.P,J2,2,Pin_2*%
%TO.N,/RX*%
X145715000Y-102775000D03*
%TO.P,J2,3,Pin_3*%
%TO.N,/TX*%
X148255000Y-102775000D03*
%TO.P,J2,4,Pin_4*%
%TO.N,GND*%
X150795000Y-102775000D03*
%TO.P,J2,5,Pin_5*%
%TO.N,+5V*%
X153335000Y-102775000D03*
%TO.P,J2,6,Pin_6*%
%TO.N,/RTS*%
X155875000Y-102775000D03*
%TD*%
D20*
%TO.N,GND*%
X154990000Y-106370000D03*
X156050000Y-119500000D03*
X142925000Y-119500000D03*
X142950000Y-123375000D03*
X153800000Y-115275000D03*
X156050000Y-123350000D03*
X142900000Y-117220000D03*
X156030000Y-117240000D03*
X145200000Y-115300000D03*
%TO.N,+5V*%
X142575000Y-112320000D03*
%TO.N,Net-(J1-CC1)*%
X148250000Y-115450000D03*
%TO.N,Net-(J1-CC2)*%
X151250000Y-115425000D03*
%TD*%
%TO.N,+5V*%
D21*
X154030000Y-107775000D02*
X154030000Y-105980000D01*
D22*
X147700000Y-117910000D02*
X147100000Y-117310000D01*
X147100000Y-117310000D02*
X147100000Y-116675000D01*
D21*
X145250000Y-112300000D02*
X145250000Y-113150000D01*
X142595000Y-112300000D02*
X142575000Y-112320000D01*
D22*
X152050000Y-116675000D02*
X151900000Y-116675000D01*
D21*
X153335000Y-104815000D02*
X153335000Y-102775000D01*
X147100000Y-115000000D02*
X147100000Y-116675000D01*
X145250000Y-112300000D02*
X142595000Y-112300000D01*
D22*
X151900000Y-116675000D02*
X151900000Y-117471827D01*
D21*
X154030000Y-105980000D02*
X153325000Y-105275000D01*
D22*
X151900000Y-117471827D02*
X151461827Y-117910000D01*
D21*
X153325000Y-104825000D02*
X153335000Y-104815000D01*
X145250000Y-113150000D02*
X147100000Y-115000000D01*
D22*
X151461827Y-117910000D02*
X147700000Y-117910000D01*
D21*
X153325000Y-105275000D02*
X153325000Y-104825000D01*
%TO.N,/D-*%
D23*
X151025000Y-114668200D02*
X151025000Y-114425000D01*
X151490000Y-113960000D02*
X151490000Y-113025000D01*
X149750000Y-116675000D02*
X149750000Y-116205000D01*
X149725000Y-116180000D02*
X149725000Y-115968200D01*
X149725000Y-115968200D02*
X151025000Y-114668200D01*
X151025000Y-114425000D02*
X151490000Y-113960000D01*
X149750000Y-116205000D02*
X149725000Y-116180000D01*
%TO.N,/D+*%
X150220000Y-113895000D02*
X150220000Y-113025000D01*
X150525000Y-114531800D02*
X150525000Y-114200000D01*
X149250000Y-116205000D02*
X149275000Y-116180000D01*
X149250000Y-116675000D02*
X149250000Y-116205000D01*
X150525000Y-114200000D02*
X150220000Y-113895000D01*
X149275000Y-115781800D02*
X150525000Y-114531800D01*
X149275000Y-116180000D02*
X149275000Y-115781800D01*
%TO.N,Net-(J1-CC1)*%
D22*
X148250000Y-116675000D02*
X148250000Y-115550000D01*
%TO.N,Net-(J1-CC2)*%
X151250000Y-115425000D02*
X151250000Y-116675000D01*
%TO.N,/RTS*%
D21*
X154030000Y-111105000D02*
X154030000Y-113025000D01*
X155875000Y-102775000D02*
X155875000Y-109250000D01*
X154025000Y-111100000D02*
X154030000Y-111105000D01*
X155875000Y-109250000D02*
X154025000Y-111100000D01*
%TO.N,+3V3*%
X143260000Y-107775000D02*
X143175000Y-107690000D01*
X143175000Y-107690000D02*
X143175000Y-102775000D01*
X150220000Y-107775000D02*
X143260000Y-107775000D01*
%TO.N,/TX*%
X152760000Y-106410000D02*
X152760000Y-107775000D01*
X148255000Y-104005000D02*
X148750000Y-104500000D01*
X148255000Y-102775000D02*
X148255000Y-104005000D01*
X148750000Y-104500000D02*
X150850000Y-104500000D01*
X150850000Y-104500000D02*
X152760000Y-106410000D01*
%TO.N,/RX*%
X145715000Y-104140000D02*
X145715000Y-102775000D01*
X147275000Y-105700000D02*
X145715000Y-104140000D01*
X151490000Y-106615000D02*
X150575000Y-105700000D01*
X151490000Y-107775000D02*
X151490000Y-106615000D01*
X150575000Y-105700000D02*
X147275000Y-105700000D01*
%TO.N,Net-(D1-A)*%
X145250000Y-109200000D02*
X147537500Y-109200000D01*
X147537500Y-109200000D02*
X147600000Y-109262500D01*
%TD*%
%TA.AperFunction,Conductor*%
%TO.N,GND*%
G36*
X157217539Y-101270185D02*
G01*
X157263294Y-101322989D01*
X157274500Y-101374500D01*
X157274500Y-124125500D01*
X157254815Y-124192539D01*
X157202011Y-124238294D01*
X157150500Y-124249500D01*
X141899500Y-124249500D01*
X141832461Y-124229815D01*
X141786706Y-124177011D01*
X141775500Y-124125500D01*
X141775500Y-121943995D01*
X144479499Y-121943995D01*
X144506418Y-122079322D01*
X144506421Y-122079332D01*
X144559221Y-122206804D01*
X144559228Y-122206817D01*
X144635885Y-122321541D01*
X144635888Y-122321545D01*
X144733454Y-122419111D01*
X144733458Y-122419114D01*
X144848182Y-122495771D01*
X144848195Y-122495778D01*
X144975667Y-122548578D01*
X144975672Y-122548580D01*
X144975676Y-122548580D01*
X144975677Y-122548581D01*
X145111004Y-122575500D01*
X145111007Y-122575500D01*
X145248995Y-122575500D01*
X145340041Y-122557389D01*
X145384328Y-122548580D01*
X145511811Y-122495775D01*
X145626542Y-122419114D01*
X145724114Y-122321542D01*
X145800775Y-122206811D01*
X145853580Y-122079328D01*
X145880500Y-121943995D01*
X153119499Y-121943995D01*
X153146418Y-122079322D01*
X153146421Y-122079332D01*
X153199221Y-122206804D01*
X153199228Y-122206817D01*
X153275885Y-122321541D01*
X153275888Y-122321545D01*
X153373454Y-122419111D01*
X153373458Y-122419114D01*
X153488182Y-122495771D01*
X153488195Y-122495778D01*
X153615667Y-122548578D01*
X153615672Y-122548580D01*
X153615676Y-122548580D01*
X153615677Y-122548581D01*
X153751004Y-122575500D01*
X153751007Y-122575500D01*
X153888995Y-122575500D01*
X153980041Y-122557389D01*
X154024328Y-122548580D01*
X154151811Y-122495775D01*
X154266542Y-122419114D01*
X154364114Y-122321542D01*
X154440775Y-122206811D01*
X154493580Y-122079328D01*
X154520500Y-121943993D01*
X154520500Y-121006007D01*
X154520500Y-121006004D01*
X154493581Y-120870677D01*
X154493580Y-120870676D01*
X154493580Y-120870672D01*
X154493578Y-120870667D01*
X154440778Y-120743195D01*
X154440771Y-120743182D01*
X154364114Y-120628458D01*
X154364111Y-120628454D01*
X154266545Y-120530888D01*
X154266541Y-120530885D01*
X154151817Y-120454228D01*
X154151804Y-120454221D01*
X154024332Y-120401421D01*
X154024322Y-120401418D01*
X153888995Y-120374500D01*
X153888993Y-120374500D01*
X153751007Y-120374500D01*
X153751005Y-120374500D01*
X153615677Y-120401418D01*
X153615667Y-120401421D01*
X153488195Y-120454221D01*
X153488182Y-120454228D01*
X153373458Y-120530885D01*
X153373454Y-120530888D01*
X153275888Y-120628454D01*
X153275885Y-120628458D01*
X153199228Y-120743182D01*
X153199221Y-120743195D01*
X153146421Y-120870667D01*
X153146418Y-120870677D01*
X153119500Y-121006004D01*
X153119500Y-121006007D01*
X153119500Y-121943993D01*
X153119500Y-121943995D01*
X153119499Y-121943995D01*
X145880500Y-121943995D01*
X145880500Y-121943993D01*
X145880500Y-121006007D01*
X145880500Y-121006004D01*
X145853581Y-120870677D01*
X145853580Y-120870676D01*
X145853580Y-120870672D01*
X145853578Y-120870667D01*
X145800778Y-120743195D01*
X145800771Y-120743182D01*
X145724114Y-120628458D01*
X145724111Y-120628454D01*
X145626545Y-120530888D01*
X145626541Y-120530885D01*
X145511817Y-120454228D01*
X145511804Y-120454221D01*
X145384332Y-120401421D01*
X145384322Y-120401418D01*
X145248995Y-120374500D01*
X145248993Y-120374500D01*
X145111007Y-120374500D01*
X145111005Y-120374500D01*
X144975677Y-120401418D01*
X144975667Y-120401421D01*
X144848195Y-120454221D01*
X144848182Y-120454228D01*
X144733458Y-120530885D01*
X144733454Y-120530888D01*
X144635888Y-120628454D01*
X144635885Y-120628458D01*
X144559228Y-120743182D01*
X144559221Y-120743195D01*
X144506421Y-120870667D01*
X144506418Y-120870677D01*
X144479500Y-121006004D01*
X144479500Y-121006007D01*
X144479500Y-121943993D01*
X144479500Y-121943995D01*
X144479499Y-121943995D01*
X141775500Y-121943995D01*
X141775500Y-111394901D01*
X141795185Y-111327862D01*
X141847989Y-111282107D01*
X141917147Y-111272163D01*
X141980703Y-111301188D01*
X142015682Y-111351568D01*
X142046645Y-111434586D01*
X142046649Y-111434593D01*
X142132809Y-111549687D01*
X142132812Y-111549690D01*
X142247906Y-111635850D01*
X142247913Y-111635854D01*
X142302906Y-111656365D01*
X142358840Y-111698236D01*
X142383257Y-111763700D01*
X142368406Y-111831973D01*
X142321576Y-111879933D01*
X142287686Y-111899500D01*
X142287683Y-111899502D01*
X142174502Y-112012683D01*
X142174500Y-112012686D01*
X142108608Y-112126812D01*
X142074500Y-112254108D01*
X142074500Y-112385891D01*
X142108608Y-112513187D01*
X142141554Y-112570250D01*
X142174500Y-112627314D01*
X142267686Y-112720500D01*
X142381814Y-112786392D01*
X142509108Y-112820500D01*
X142509110Y-112820500D01*
X142640890Y-112820500D01*
X142640892Y-112820500D01*
X142682622Y-112809318D01*
X142699767Y-112804725D01*
X142731859Y-112800500D01*
X144528399Y-112800500D01*
X144595438Y-112820185D01*
X144632698Y-112857436D01*
X144640610Y-112869742D01*
X144652207Y-112902882D01*
X144727636Y-113005086D01*
X144729799Y-113008449D01*
X144738569Y-113038292D01*
X144749241Y-113067508D01*
X144749498Y-113075479D01*
X144749500Y-113075483D01*
X144749499Y-113075485D01*
X144749500Y-113075513D01*
X144749500Y-113215891D01*
X144783608Y-113343187D01*
X144788801Y-113352181D01*
X144849500Y-113457314D01*
X144849502Y-113457316D01*
X146563181Y-115170995D01*
X146596666Y-115232318D01*
X146599500Y-115258676D01*
X146599500Y-116551000D01*
X146579815Y-116618039D01*
X146527011Y-116663794D01*
X146475500Y-116675000D01*
X146124000Y-116675000D01*
X146056961Y-116655315D01*
X146011206Y-116602511D01*
X146000000Y-116551000D01*
X146000000Y-115805000D01*
X145975373Y-115805000D01*
X145902459Y-115819503D01*
X145902455Y-115819505D01*
X145819760Y-115874760D01*
X145764505Y-115957455D01*
X145764503Y-115957459D01*
X145750000Y-116030371D01*
X145750000Y-116031389D01*
X145749849Y-116031901D01*
X145749403Y-116036436D01*
X145748542Y-116036351D01*
X145730315Y-116098428D01*
X145677511Y-116144183D01*
X145608353Y-116154127D01*
X145557110Y-116134492D01*
X145511815Y-116104227D01*
X145511804Y-116104221D01*
X145384332Y-116051421D01*
X145384322Y-116051418D01*
X145248995Y-116024500D01*
X145248993Y-116024500D01*
X145111007Y-116024500D01*
X145111005Y-116024500D01*
X144975677Y-116051418D01*
X144975667Y-116051421D01*
X144848195Y-116104221D01*
X144848182Y-116104228D01*
X144733458Y-116180885D01*
X144733454Y-116180888D01*
X144635888Y-116278454D01*
X144635885Y-116278458D01*
X144559228Y-116393182D01*
X144559221Y-116393195D01*
X144506421Y-116520667D01*
X144506418Y-116520677D01*
X144479500Y-116656004D01*
X144479500Y-116656007D01*
X144479500Y-117893993D01*
X144479500Y-117893995D01*
X144479499Y-117893995D01*
X144506418Y-118029322D01*
X144506421Y-118029332D01*
X144559221Y-118156804D01*
X144559228Y-118156817D01*
X144635885Y-118271541D01*
X144635888Y-118271545D01*
X144733454Y-118369111D01*
X144733458Y-118369114D01*
X144848182Y-118445771D01*
X144848195Y-118445778D01*
X144975667Y-118498578D01*
X144975672Y-118498580D01*
X144975676Y-118498580D01*
X144975677Y-118498581D01*
X145111004Y-118525500D01*
X145111007Y-118525500D01*
X145248995Y-118525500D01*
X145340041Y-118507389D01*
X145384328Y-118498580D01*
X145511811Y-118445775D01*
X145626542Y-118369114D01*
X145724114Y-118271542D01*
X145800775Y-118156811D01*
X145809609Y-118135485D01*
X145847026Y-118045151D01*
X145853580Y-118029328D01*
X145880500Y-117893993D01*
X145880500Y-117669000D01*
X145883050Y-117660314D01*
X145881762Y-117651353D01*
X145892740Y-117627312D01*
X145900185Y-117601961D01*
X145907025Y-117596033D01*
X145910787Y-117587797D01*
X145933021Y-117573507D01*
X145952989Y-117556206D01*
X145963503Y-117553918D01*
X145969565Y-117550023D01*
X146004500Y-117545000D01*
X146074878Y-117545000D01*
X146141917Y-117564685D01*
X146187672Y-117617489D01*
X146197616Y-117686647D01*
X146194656Y-117701077D01*
X146184500Y-117738982D01*
X146184500Y-117851018D01*
X146213497Y-117959237D01*
X146269515Y-118056263D01*
X146348737Y-118135485D01*
X146445763Y-118191503D01*
X146553982Y-118220500D01*
X146553984Y-118220500D01*
X146666016Y-118220500D01*
X146666018Y-118220500D01*
X146774237Y-118191503D01*
X146871263Y-118135485D01*
X146950485Y-118056263D01*
X147006503Y-117959237D01*
X147006505Y-117959227D01*
X147007839Y-117956009D01*
X147009701Y-117953697D01*
X147010567Y-117952198D01*
X147010800Y-117952332D01*
X147051674Y-117901601D01*
X147117966Y-117879528D01*
X147185667Y-117896800D01*
X147210086Y-117915768D01*
X147484788Y-118190470D01*
X147536802Y-118220500D01*
X147536804Y-118220501D01*
X147564709Y-118236613D01*
X147564711Y-118236613D01*
X147564712Y-118236614D01*
X147653856Y-118260500D01*
X147653858Y-118260500D01*
X151507969Y-118260500D01*
X151507971Y-118260500D01*
X151597115Y-118236614D01*
X151625025Y-118220500D01*
X151677039Y-118190470D01*
X151848037Y-118019471D01*
X151909355Y-117985989D01*
X151979047Y-117990973D01*
X152034981Y-118032844D01*
X152043099Y-118045151D01*
X152049515Y-118056263D01*
X152128737Y-118135485D01*
X152225763Y-118191503D01*
X152333982Y-118220500D01*
X152333984Y-118220500D01*
X152446016Y-118220500D01*
X152446018Y-118220500D01*
X152554237Y-118191503D01*
X152651263Y-118135485D01*
X152730485Y-118056263D01*
X152786503Y-117959237D01*
X152815500Y-117851018D01*
X152815500Y-117738982D01*
X152805347Y-117701090D01*
X152805942Y-117676098D01*
X152802384Y-117651353D01*
X152806759Y-117641772D01*
X152807010Y-117631244D01*
X152821022Y-117610540D01*
X152831409Y-117587797D01*
X152840269Y-117582102D01*
X152846172Y-117573382D01*
X152869152Y-117563540D01*
X152890187Y-117550023D01*
X152906041Y-117547743D01*
X152910400Y-117545877D01*
X152925122Y-117545000D01*
X152995500Y-117545000D01*
X153062539Y-117564685D01*
X153108294Y-117617489D01*
X153119500Y-117669000D01*
X153119500Y-117893993D01*
X153119500Y-117893995D01*
X153119499Y-117893995D01*
X153146418Y-118029322D01*
X153146421Y-118029332D01*
X153199221Y-118156804D01*
X153199228Y-118156817D01*
X153275885Y-118271541D01*
X153275888Y-118271545D01*
X153373454Y-118369111D01*
X153373458Y-118369114D01*
X153488182Y-118445771D01*
X153488195Y-118445778D01*
X153615667Y-118498578D01*
X153615672Y-118498580D01*
X153615676Y-118498580D01*
X153615677Y-118498581D01*
X153751004Y-118525500D01*
X153751007Y-118525500D01*
X153888995Y-118525500D01*
X153980041Y-118507389D01*
X154024328Y-118498580D01*
X154151811Y-118445775D01*
X154266542Y-118369114D01*
X154364114Y-118271542D01*
X154440775Y-118156811D01*
X154449609Y-118135485D01*
X154487026Y-118045151D01*
X154493580Y-118029328D01*
X154520500Y-117893993D01*
X154520500Y-116656007D01*
X154520500Y-116656004D01*
X154493581Y-116520677D01*
X154493580Y-116520676D01*
X154493580Y-116520672D01*
X154493578Y-116520667D01*
X154440778Y-116393195D01*
X154440771Y-116393182D01*
X154364114Y-116278458D01*
X154364111Y-116278454D01*
X154266545Y-116180888D01*
X154266541Y-116180885D01*
X154151817Y-116104228D01*
X154151804Y-116104221D01*
X154024332Y-116051421D01*
X154024322Y-116051418D01*
X153888995Y-116024500D01*
X153888993Y-116024500D01*
X153751007Y-116024500D01*
X153751005Y-116024500D01*
X153615677Y-116051418D01*
X153615667Y-116051421D01*
X153488195Y-116104221D01*
X153488184Y-116104227D01*
X153442890Y-116134492D01*
X153376212Y-116155369D01*
X153308832Y-116136884D01*
X153262143Y-116084905D01*
X153251133Y-116036383D01*
X153250597Y-116036436D01*
X153250176Y-116032167D01*
X153250000Y-116031389D01*
X153250000Y-116030373D01*
X153249999Y-116030371D01*
X153235496Y-115957459D01*
X153235494Y-115957455D01*
X153180239Y-115874760D01*
X153097544Y-115819505D01*
X153097540Y-115819503D01*
X153024627Y-115805000D01*
X153000000Y-115805000D01*
X153000000Y-116551000D01*
X152980315Y-116618039D01*
X152927511Y-116663794D01*
X152876000Y-116675000D01*
X152524500Y-116675000D01*
X152457461Y-116655315D01*
X152411706Y-116602511D01*
X152400500Y-116551000D01*
X152400500Y-116034262D01*
X152400000Y-116024084D01*
X152400000Y-115805000D01*
X152375374Y-115805000D01*
X152302456Y-115819504D01*
X152281356Y-115833603D01*
X152214679Y-115854480D01*
X152212466Y-115854500D01*
X151794730Y-115854500D01*
X151727691Y-115834815D01*
X151681936Y-115782011D01*
X151671992Y-115712853D01*
X151687344Y-115668499D01*
X151716389Y-115618191D01*
X151716388Y-115618191D01*
X151716392Y-115618186D01*
X151750500Y-115490892D01*
X151750500Y-115359108D01*
X151716392Y-115231814D01*
X151650500Y-115117686D01*
X151557314Y-115024500D01*
X151486487Y-114983608D01*
X151443187Y-114958608D01*
X151409194Y-114949500D01*
X151390371Y-114944456D01*
X151330711Y-114908092D01*
X151300182Y-114845245D01*
X151299360Y-114809814D01*
X151301775Y-114789810D01*
X151305022Y-114784188D01*
X151325500Y-114707762D01*
X151325500Y-114628638D01*
X151325500Y-114593375D01*
X151326395Y-114585965D01*
X151337359Y-114560443D01*
X151345185Y-114533794D01*
X151352947Y-114524160D01*
X151353975Y-114521770D01*
X151355947Y-114520438D01*
X151361819Y-114513152D01*
X151535429Y-114339542D01*
X151730460Y-114144511D01*
X151770021Y-114075989D01*
X151770646Y-114073654D01*
X151771713Y-114071903D01*
X151773133Y-114068477D01*
X151773666Y-114068698D01*
X151807005Y-114013993D01*
X151835961Y-113994341D01*
X151846483Y-113989198D01*
X151929198Y-113906483D01*
X151980573Y-113801393D01*
X151980574Y-113801384D01*
X151982076Y-113796524D01*
X152020671Y-113738282D01*
X152084628Y-113710151D01*
X152153640Y-113721063D01*
X152205797Y-113767554D01*
X152223025Y-113813723D01*
X152224834Y-113825145D01*
X152224837Y-113825155D01*
X152282356Y-113938041D01*
X152282363Y-113938050D01*
X152371949Y-114027636D01*
X152371953Y-114027639D01*
X152460000Y-114072501D01*
X152460000Y-111977497D01*
X152459999Y-111977496D01*
X153060000Y-111977496D01*
X153060000Y-114072501D01*
X153148046Y-114027639D01*
X153148050Y-114027636D01*
X153237636Y-113938050D01*
X153237639Y-113938046D01*
X153295164Y-113825146D01*
X153296973Y-113813729D01*
X153326902Y-113750594D01*
X153386212Y-113713662D01*
X153456075Y-113714658D01*
X153514308Y-113753267D01*
X153537919Y-113796515D01*
X153539424Y-113801388D01*
X153590803Y-113906485D01*
X153673514Y-113989196D01*
X153673515Y-113989196D01*
X153673517Y-113989198D01*
X153778607Y-114040573D01*
X153812673Y-114045536D01*
X153846739Y-114050500D01*
X153846740Y-114050500D01*
X154213261Y-114050500D01*
X154235971Y-114047191D01*
X154281393Y-114040573D01*
X154386483Y-113989198D01*
X154469198Y-113906483D01*
X154520573Y-113801393D01*
X154530500Y-113733260D01*
X154530500Y-112316740D01*
X154530500Y-111353676D01*
X154550185Y-111286637D01*
X154566819Y-111265995D01*
X155352814Y-110480000D01*
X156275500Y-109557314D01*
X156341392Y-109443186D01*
X156375500Y-109315893D01*
X156375500Y-109184108D01*
X156375500Y-103770281D01*
X156395185Y-103703242D01*
X156430610Y-103667178D01*
X156544655Y-103590977D01*
X156690977Y-103444655D01*
X156805941Y-103272598D01*
X156885130Y-103081420D01*
X156925500Y-102878465D01*
X156925500Y-102671535D01*
X156885130Y-102468580D01*
X156805941Y-102277402D01*
X156690977Y-102105345D01*
X156690975Y-102105342D01*
X156544657Y-101959024D01*
X156376655Y-101846770D01*
X156372598Y-101844059D01*
X156348784Y-101834195D01*
X156181420Y-101764870D01*
X156181412Y-101764868D01*
X155978469Y-101724500D01*
X155978465Y-101724500D01*
X155771535Y-101724500D01*
X155771530Y-101724500D01*
X155568587Y-101764868D01*
X155568579Y-101764870D01*
X155377403Y-101844058D01*
X155205342Y-101959024D01*
X155059024Y-102105342D01*
X154944058Y-102277403D01*
X154864870Y-102468579D01*
X154864868Y-102468587D01*
X154824500Y-102671530D01*
X154824500Y-102878469D01*
X154864868Y-103081412D01*
X154864870Y-103081420D01*
X154944058Y-103272596D01*
X155059024Y-103444657D01*
X155205340Y-103590973D01*
X155205343Y-103590975D01*
X155205345Y-103590977D01*
X155305028Y-103657582D01*
X155319390Y-103667178D01*
X155364196Y-103720791D01*
X155374500Y-103770281D01*
X155374500Y-108991324D01*
X155354815Y-109058363D01*
X155338181Y-109079005D01*
X153624502Y-110792683D01*
X153624500Y-110792686D01*
X153558608Y-110906812D01*
X153524500Y-111034108D01*
X153524500Y-111165891D01*
X153525275Y-111168783D01*
X153529500Y-111200876D01*
X153529500Y-112168262D01*
X153509815Y-112235301D01*
X153457011Y-112281056D01*
X153387853Y-112291000D01*
X153324297Y-112261975D01*
X153295016Y-112224558D01*
X153237641Y-112111956D01*
X153237636Y-112111949D01*
X153148046Y-112022359D01*
X153060000Y-111977496D01*
X152459999Y-111977496D01*
X152371953Y-112022359D01*
X152282363Y-112111949D01*
X152282360Y-112111953D01*
X152224834Y-112224854D01*
X152223025Y-112236276D01*
X152193093Y-112299410D01*
X152133780Y-112336339D01*
X152063918Y-112335339D01*
X152005686Y-112296727D01*
X151982078Y-112253478D01*
X151980573Y-112248608D01*
X151980573Y-112248607D01*
X151929198Y-112143517D01*
X151929196Y-112143515D01*
X151929196Y-112143514D01*
X151846485Y-112060803D01*
X151741391Y-112009426D01*
X151673261Y-111999500D01*
X151673260Y-111999500D01*
X151306740Y-111999500D01*
X151306739Y-111999500D01*
X151238608Y-112009426D01*
X151133514Y-112060803D01*
X151050803Y-112143514D01*
X150999426Y-112248608D01*
X150989500Y-112316739D01*
X150989500Y-113733260D01*
X150999426Y-113801391D01*
X151034162Y-113872445D01*
X151038154Y-113895831D01*
X151046445Y-113918059D01*
X151043926Y-113929638D01*
X151045920Y-113941318D01*
X151036636Y-113963148D01*
X151031593Y-113986332D01*
X151020443Y-114001225D01*
X151018577Y-114005615D01*
X151010442Y-114014586D01*
X150969067Y-114055961D01*
X150907744Y-114089446D01*
X150838052Y-114084462D01*
X150782119Y-114042590D01*
X150773997Y-114030276D01*
X150765462Y-114015492D01*
X150765458Y-114015487D01*
X150720900Y-113970929D01*
X150687415Y-113909606D01*
X150692399Y-113839914D01*
X150697181Y-113828787D01*
X150697553Y-113828024D01*
X150710573Y-113801393D01*
X150720500Y-113733260D01*
X150720500Y-112316740D01*
X150710573Y-112248607D01*
X150659198Y-112143517D01*
X150659196Y-112143515D01*
X150659196Y-112143514D01*
X150576485Y-112060803D01*
X150471391Y-112009426D01*
X150403261Y-111999500D01*
X150403260Y-111999500D01*
X150036740Y-111999500D01*
X150036739Y-111999500D01*
X149968608Y-112009426D01*
X149863514Y-112060803D01*
X149780803Y-112143514D01*
X149729426Y-112248608D01*
X149719500Y-112316739D01*
X149719500Y-113733260D01*
X149729426Y-113801391D01*
X149780803Y-113906485D01*
X149863515Y-113989197D01*
X149863514Y-113989197D01*
X149874029Y-113994337D01*
X149918513Y-114016083D01*
X149970096Y-114063210D01*
X149971441Y-114065484D01*
X149979537Y-114079507D01*
X149979541Y-114079512D01*
X150178248Y-114278219D01*
X150211733Y-114339542D01*
X150206749Y-114409234D01*
X150178248Y-114453581D01*
X149034541Y-115597287D01*
X149034535Y-115597295D01*
X148994982Y-115665804D01*
X148994979Y-115665809D01*
X148974498Y-115742245D01*
X148973913Y-115746691D01*
X148973604Y-115747389D01*
X148973713Y-115748147D01*
X148959482Y-115779306D01*
X148945644Y-115810586D01*
X148945005Y-115811006D01*
X148944688Y-115811703D01*
X148915896Y-115830206D01*
X148887318Y-115849055D01*
X148886338Y-115849201D01*
X148885910Y-115849477D01*
X148850975Y-115854500D01*
X148809164Y-115854500D01*
X148742125Y-115834815D01*
X148696370Y-115782011D01*
X148686426Y-115712853D01*
X148701778Y-115668499D01*
X148716389Y-115643191D01*
X148716388Y-115643191D01*
X148716392Y-115643186D01*
X148750500Y-115515892D01*
X148750500Y-115384108D01*
X148716392Y-115256814D01*
X148650500Y-115142686D01*
X148557314Y-115049500D01*
X148500250Y-115016554D01*
X148443187Y-114983608D01*
X148379539Y-114966554D01*
X148315892Y-114949500D01*
X148184108Y-114949500D01*
X148056812Y-114983608D01*
X147942686Y-115049500D01*
X147942683Y-115049502D01*
X147849502Y-115142683D01*
X147849500Y-115142686D01*
X147831887Y-115173193D01*
X147831860Y-115173218D01*
X147831852Y-115173252D01*
X147807289Y-115196645D01*
X147781319Y-115221408D01*
X147781283Y-115221414D01*
X147781258Y-115221439D01*
X147746826Y-115228055D01*
X147712712Y-115234630D01*
X147712679Y-115234617D01*
X147712644Y-115234624D01*
X147679562Y-115221358D01*
X147647848Y-115208662D01*
X147647827Y-115208633D01*
X147647794Y-115208620D01*
X147627200Y-115179667D01*
X147607320Y-115151748D01*
X147607311Y-115151703D01*
X147607297Y-115151683D01*
X147607225Y-115151256D01*
X147600637Y-115117023D01*
X147600500Y-115114112D01*
X147600500Y-114934108D01*
X147593681Y-114908660D01*
X147566392Y-114806814D01*
X147500500Y-114692686D01*
X146159995Y-113352181D01*
X146126510Y-113290858D01*
X146131494Y-113221166D01*
X146173366Y-113165233D01*
X146238830Y-113140816D01*
X146247676Y-113140500D01*
X146359270Y-113140500D01*
X146389699Y-113137646D01*
X146389701Y-113137646D01*
X146453790Y-113115219D01*
X146517882Y-113092793D01*
X146627150Y-113012150D01*
X146707793Y-112902882D01*
X146712653Y-112888990D01*
X146753372Y-112832217D01*
X146818325Y-112806468D01*
X146886887Y-112819923D01*
X146937290Y-112868310D01*
X146945875Y-112886610D01*
X146951648Y-112902089D01*
X147037811Y-113017188D01*
X147152909Y-113103350D01*
X147287629Y-113153598D01*
X147287628Y-113153598D01*
X147347164Y-113159999D01*
X147719999Y-113159999D01*
X148320000Y-113159999D01*
X148692823Y-113159999D01*
X148692830Y-113159998D01*
X148752377Y-113153597D01*
X148887087Y-113103352D01*
X149002188Y-113017188D01*
X149088350Y-112902090D01*
X149138598Y-112767371D01*
X149144999Y-112707843D01*
X149145000Y-112707826D01*
X149145000Y-112497500D01*
X148320000Y-112497500D01*
X148320000Y-113159999D01*
X147719999Y-113159999D01*
X147720000Y-113159998D01*
X147720000Y-111897500D01*
X148320000Y-111897500D01*
X149144999Y-111897500D01*
X149144999Y-111687176D01*
X149144998Y-111687169D01*
X149138597Y-111627622D01*
X149088352Y-111492912D01*
X149002188Y-111377811D01*
X148887090Y-111291649D01*
X148752370Y-111241401D01*
X148752371Y-111241401D01*
X148692843Y-111235000D01*
X148320000Y-111235000D01*
X148320000Y-111897500D01*
X147720000Y-111897500D01*
X147720000Y-111235000D01*
X147347177Y-111235000D01*
X147347169Y-111235001D01*
X147287622Y-111241402D01*
X147152912Y-111291647D01*
X147037811Y-111377811D01*
X146951648Y-111492911D01*
X146904146Y-111620266D01*
X146862274Y-111676199D01*
X146796810Y-111700615D01*
X146728537Y-111685763D01*
X146688197Y-111650567D01*
X146627150Y-111567850D01*
X146517882Y-111487207D01*
X146517880Y-111487206D01*
X146389700Y-111442353D01*
X146359270Y-111439500D01*
X146359266Y-111439500D01*
X145000734Y-111439500D01*
X145000730Y-111439500D01*
X144970300Y-111442353D01*
X144970298Y-111442353D01*
X144842119Y-111487206D01*
X144842117Y-111487207D01*
X144732850Y-111567850D01*
X144652206Y-111677118D01*
X144638443Y-111716454D01*
X144597722Y-111773230D01*
X144532769Y-111798978D01*
X144521401Y-111799500D01*
X144186041Y-111799500D01*
X144119002Y-111779815D01*
X144073247Y-111727011D01*
X144063303Y-111657853D01*
X144092328Y-111594297D01*
X144111730Y-111576233D01*
X144147190Y-111549686D01*
X144233350Y-111434593D01*
X144233354Y-111434586D01*
X144283596Y-111299879D01*
X144283598Y-111299872D01*
X144289999Y-111240344D01*
X144290000Y-111240327D01*
X144290000Y-111080000D01*
X143264000Y-111080000D01*
X143196961Y-111060315D01*
X143151206Y-111007511D01*
X143140000Y-110956000D01*
X143140000Y-110780000D01*
X142964000Y-110780000D01*
X142896961Y-110760315D01*
X142851206Y-110707511D01*
X142840000Y-110656000D01*
X142840000Y-110480000D01*
X143440000Y-110480000D01*
X144290000Y-110480000D01*
X144290000Y-110319672D01*
X144289999Y-110319655D01*
X144283598Y-110260127D01*
X144283596Y-110260120D01*
X144233354Y-110125413D01*
X144233350Y-110125406D01*
X144147190Y-110010312D01*
X144147187Y-110010309D01*
X144032093Y-109924149D01*
X144032086Y-109924145D01*
X143897379Y-109873903D01*
X143897372Y-109873901D01*
X143837844Y-109867500D01*
X143440000Y-109867500D01*
X143440000Y-110480000D01*
X142840000Y-110480000D01*
X142840000Y-109867500D01*
X142442155Y-109867500D01*
X142382627Y-109873901D01*
X142382620Y-109873903D01*
X142247913Y-109924145D01*
X142247906Y-109924149D01*
X142132812Y-110010309D01*
X142132809Y-110010312D01*
X142046649Y-110125406D01*
X142046645Y-110125413D01*
X142015682Y-110208431D01*
X141973811Y-110264365D01*
X141908346Y-110288782D01*
X141840073Y-110273930D01*
X141790668Y-110224525D01*
X141775500Y-110165098D01*
X141775500Y-107188230D01*
X142039500Y-107188230D01*
X142039500Y-108121769D01*
X142042353Y-108152199D01*
X142042353Y-108152201D01*
X142087206Y-108280380D01*
X142087207Y-108280382D01*
X142167850Y-108389650D01*
X142277118Y-108470293D01*
X142314176Y-108483260D01*
X142405299Y-108515146D01*
X142435730Y-108518000D01*
X142435734Y-108518000D01*
X143844270Y-108518000D01*
X143874699Y-108515146D01*
X143874701Y-108515146D01*
X143938790Y-108492719D01*
X144002882Y-108470293D01*
X144112150Y-108389650D01*
X144159224Y-108325867D01*
X144214871Y-108283616D01*
X144258994Y-108275500D01*
X144629181Y-108275500D01*
X144696220Y-108295185D01*
X144741975Y-108347989D01*
X144751919Y-108417147D01*
X144728951Y-108473131D01*
X144697944Y-108515146D01*
X144652207Y-108577117D01*
X144652206Y-108577119D01*
X144607353Y-108705298D01*
X144607353Y-108705300D01*
X144604500Y-108735730D01*
X144604500Y-109644269D01*
X144607353Y-109674699D01*
X144607353Y-109674701D01*
X144645440Y-109783543D01*
X144652207Y-109802882D01*
X144732850Y-109912150D01*
X144842118Y-109992793D01*
X144883145Y-110007149D01*
X144970299Y-110037646D01*
X145000730Y-110040500D01*
X145000734Y-110040500D01*
X146359270Y-110040500D01*
X146389699Y-110037646D01*
X146389701Y-110037646D01*
X146467824Y-110010309D01*
X146517882Y-109992793D01*
X146627150Y-109912150D01*
X146707793Y-109802882D01*
X146714560Y-109783542D01*
X146728180Y-109764553D01*
X146737888Y-109743297D01*
X146748164Y-109736693D01*
X146755283Y-109726768D01*
X146777006Y-109718157D01*
X146796666Y-109705523D01*
X146815833Y-109702767D01*
X146820236Y-109701022D01*
X146831601Y-109700500D01*
X146835158Y-109700500D01*
X146902197Y-109720185D01*
X146947952Y-109772989D01*
X146952196Y-109783537D01*
X146968161Y-109829164D01*
X146992206Y-109897881D01*
X146992207Y-109897882D01*
X147072850Y-110007150D01*
X147182118Y-110087793D01*
X147310302Y-110132646D01*
X147310301Y-110132646D01*
X147314271Y-110133018D01*
X147340735Y-110135500D01*
X148699264Y-110135499D01*
X148729698Y-110132646D01*
X148857882Y-110087793D01*
X148967150Y-110007150D01*
X149047793Y-109897882D01*
X149092646Y-109769698D01*
X149095500Y-109739265D01*
X149095499Y-108705736D01*
X149092646Y-108675302D01*
X149047793Y-108547118D01*
X148993189Y-108473132D01*
X148969219Y-108407505D01*
X148984534Y-108339334D01*
X149034275Y-108290266D01*
X149092960Y-108275500D01*
X149595500Y-108275500D01*
X149662539Y-108295185D01*
X149708294Y-108347989D01*
X149719500Y-108399500D01*
X149719500Y-108483260D01*
X149729426Y-108551391D01*
X149780803Y-108656485D01*
X149863514Y-108739196D01*
X149863515Y-108739196D01*
X149863517Y-108739198D01*
X149968607Y-108790573D01*
X150002673Y-108795536D01*
X150036739Y-108800500D01*
X150036740Y-108800500D01*
X150403261Y-108800500D01*
X150425971Y-108797191D01*
X150471393Y-108790573D01*
X150576483Y-108739198D01*
X150659198Y-108656483D01*
X150710573Y-108551393D01*
X150720500Y-108483260D01*
X150720500Y-107066740D01*
X150710573Y-106998607D01*
X150659198Y-106893517D01*
X150659196Y-106893515D01*
X150659196Y-106893514D01*
X150576485Y-106810803D01*
X150471391Y-106759426D01*
X150403261Y-106749500D01*
X150403260Y-106749500D01*
X150036740Y-106749500D01*
X150036739Y-106749500D01*
X149968608Y-106759426D01*
X149863514Y-106810803D01*
X149780803Y-106893514D01*
X149729426Y-106998608D01*
X149719500Y-107066739D01*
X149719500Y-107150500D01*
X149699815Y-107217539D01*
X149647011Y-107263294D01*
X149595500Y-107274500D01*
X144361506Y-107274500D01*
X144294467Y-107254815D01*
X144248712Y-107202011D01*
X144238048Y-107162082D01*
X144237646Y-107157799D01*
X144237646Y-107157798D01*
X144192793Y-107029619D01*
X144192792Y-107029617D01*
X144112150Y-106920350D01*
X144002882Y-106839707D01*
X144002880Y-106839706D01*
X143874700Y-106794853D01*
X143844270Y-106792000D01*
X143844266Y-106792000D01*
X143799500Y-106792000D01*
X143732461Y-106772315D01*
X143686706Y-106719511D01*
X143675500Y-106668000D01*
X143675500Y-103949500D01*
X143695185Y-103882461D01*
X143747989Y-103836706D01*
X143799500Y-103825500D01*
X144044750Y-103825500D01*
X144044751Y-103825499D01*
X144059568Y-103822552D01*
X144103229Y-103813868D01*
X144103229Y-103813867D01*
X144103231Y-103813867D01*
X144169552Y-103769552D01*
X144213867Y-103703231D01*
X144213867Y-103703229D01*
X144213868Y-103703229D01*
X144225499Y-103644752D01*
X144225500Y-103644750D01*
X144225500Y-102671530D01*
X144664500Y-102671530D01*
X144664500Y-102878469D01*
X144704868Y-103081412D01*
X144704870Y-103081420D01*
X144784058Y-103272596D01*
X144899024Y-103444657D01*
X145045340Y-103590973D01*
X145045343Y-103590975D01*
X145045345Y-103590977D01*
X145145028Y-103657582D01*
X145159390Y-103667178D01*
X145204196Y-103720791D01*
X145214500Y-103770281D01*
X145214500Y-104205891D01*
X145248608Y-104333187D01*
X145281554Y-104390250D01*
X145314500Y-104447314D01*
X146967686Y-106100500D01*
X147081814Y-106166392D01*
X147209107Y-106200500D01*
X147209108Y-106200500D01*
X150316324Y-106200500D01*
X150383363Y-106220185D01*
X150404005Y-106236819D01*
X150953181Y-106785995D01*
X150986666Y-106847318D01*
X150989500Y-106873676D01*
X150989500Y-108483260D01*
X150999426Y-108551391D01*
X151050803Y-108656485D01*
X151133514Y-108739196D01*
X151133515Y-108739196D01*
X151133517Y-108739198D01*
X151238607Y-108790573D01*
X151272673Y-108795536D01*
X151306739Y-108800500D01*
X151306740Y-108800500D01*
X151673261Y-108800500D01*
X151695971Y-108797191D01*
X151741393Y-108790573D01*
X151846483Y-108739198D01*
X151929198Y-108656483D01*
X151980573Y-108551393D01*
X151990500Y-108483260D01*
X151990500Y-107066740D01*
X151990500Y-106647676D01*
X151996738Y-106626430D01*
X151998318Y-106604342D01*
X152006390Y-106593558D01*
X152010185Y-106580637D01*
X152026918Y-106566137D01*
X152040190Y-106548409D01*
X152052810Y-106543701D01*
X152062989Y-106534882D01*
X152084906Y-106531730D01*
X152105654Y-106523992D01*
X152118814Y-106526854D01*
X152132147Y-106524938D01*
X152152290Y-106534137D01*
X152173927Y-106538844D01*
X152191652Y-106552112D01*
X152195703Y-106553963D01*
X152202181Y-106559995D01*
X152223181Y-106580995D01*
X152256666Y-106642318D01*
X152259500Y-106668676D01*
X152259500Y-108483260D01*
X152269426Y-108551391D01*
X152320803Y-108656485D01*
X152403514Y-108739196D01*
X152403515Y-108739196D01*
X152403517Y-108739198D01*
X152508607Y-108790573D01*
X152542673Y-108795536D01*
X152576739Y-108800500D01*
X152576740Y-108800500D01*
X152943261Y-108800500D01*
X152965971Y-108797191D01*
X153011393Y-108790573D01*
X153116483Y-108739198D01*
X153199198Y-108656483D01*
X153250573Y-108551393D01*
X153260500Y-108483260D01*
X153260500Y-107066740D01*
X153260500Y-106344108D01*
X153226392Y-106216814D01*
X153226391Y-106216812D01*
X153224423Y-106209467D01*
X153226086Y-106139617D01*
X153265249Y-106081755D01*
X153329477Y-106054251D01*
X153398379Y-106065838D01*
X153431879Y-106089693D01*
X153493181Y-106150995D01*
X153526666Y-106212318D01*
X153529500Y-106238676D01*
X153529500Y-108483260D01*
X153539426Y-108551391D01*
X153590803Y-108656485D01*
X153673514Y-108739196D01*
X153673515Y-108739196D01*
X153673517Y-108739198D01*
X153778607Y-108790573D01*
X153812673Y-108795536D01*
X153846739Y-108800500D01*
X153846740Y-108800500D01*
X154213261Y-108800500D01*
X154235971Y-108797191D01*
X154281393Y-108790573D01*
X154386483Y-108739198D01*
X154469198Y-108656483D01*
X154520573Y-108551393D01*
X154530500Y-108483260D01*
X154530500Y-107066740D01*
X154530500Y-105914108D01*
X154496392Y-105786814D01*
X154430500Y-105672686D01*
X154337314Y-105579500D01*
X153861819Y-105104005D01*
X153847115Y-105077077D01*
X153830523Y-105051259D01*
X153829631Y-105045058D01*
X153828334Y-105042682D01*
X153825500Y-105016324D01*
X153825500Y-104934538D01*
X153829725Y-104902445D01*
X153830247Y-104900497D01*
X153835500Y-104880893D01*
X153835500Y-104749108D01*
X153835500Y-103770281D01*
X153855185Y-103703242D01*
X153890610Y-103667178D01*
X154004655Y-103590977D01*
X154150977Y-103444655D01*
X154265941Y-103272598D01*
X154345130Y-103081420D01*
X154385500Y-102878465D01*
X154385500Y-102671535D01*
X154345130Y-102468580D01*
X154265941Y-102277402D01*
X154150977Y-102105345D01*
X154150975Y-102105342D01*
X154004657Y-101959024D01*
X153836655Y-101846770D01*
X153832598Y-101844059D01*
X153808784Y-101834195D01*
X153641420Y-101764870D01*
X153641412Y-101764868D01*
X153438469Y-101724500D01*
X153438465Y-101724500D01*
X153231535Y-101724500D01*
X153231530Y-101724500D01*
X153028587Y-101764868D01*
X153028579Y-101764870D01*
X152837403Y-101844058D01*
X152665342Y-101959024D01*
X152519024Y-102105342D01*
X152404058Y-102277403D01*
X152324870Y-102468579D01*
X152324868Y-102468587D01*
X152284500Y-102671530D01*
X152284500Y-102878469D01*
X152324868Y-103081412D01*
X152324870Y-103081420D01*
X152404058Y-103272596D01*
X152519024Y-103444657D01*
X152665340Y-103590973D01*
X152665343Y-103590975D01*
X152665345Y-103590977D01*
X152765028Y-103657582D01*
X152779390Y-103667178D01*
X152824196Y-103720791D01*
X152834500Y-103770281D01*
X152834500Y-104705462D01*
X152830275Y-104737554D01*
X152824500Y-104759106D01*
X152824500Y-105340891D01*
X152860576Y-105475532D01*
X152858913Y-105545382D01*
X152819750Y-105603244D01*
X152755521Y-105630748D01*
X152686619Y-105619161D01*
X152653120Y-105595306D01*
X151157316Y-104099502D01*
X151157314Y-104099500D01*
X151081958Y-104055993D01*
X151033742Y-104005426D01*
X151020520Y-103936819D01*
X151046488Y-103871954D01*
X151103402Y-103831426D01*
X151105640Y-103830675D01*
X151217255Y-103794408D01*
X151371524Y-103715804D01*
X151511602Y-103614032D01*
X151634032Y-103491602D01*
X151735804Y-103351524D01*
X151814410Y-103197253D01*
X151814411Y-103197250D01*
X151854132Y-103075000D01*
X151199144Y-103075000D01*
X151260925Y-102967993D01*
X151295000Y-102840826D01*
X151295000Y-102709174D01*
X151260925Y-102582007D01*
X151199144Y-102475000D01*
X151854132Y-102475000D01*
X151854132Y-102474999D01*
X151814411Y-102352749D01*
X151814410Y-102352746D01*
X151735804Y-102198475D01*
X151634032Y-102058397D01*
X151511602Y-101935967D01*
X151371524Y-101834195D01*
X151217251Y-101755590D01*
X151095000Y-101715867D01*
X151095000Y-102370855D01*
X150987993Y-102309075D01*
X150860826Y-102275000D01*
X150729174Y-102275000D01*
X150602007Y-102309075D01*
X150495000Y-102370855D01*
X150495000Y-101715867D01*
X150372748Y-101755590D01*
X150218475Y-101834195D01*
X150078397Y-101935967D01*
X149955967Y-102058397D01*
X149854195Y-102198475D01*
X149775589Y-102352746D01*
X149775588Y-102352749D01*
X149735867Y-102474999D01*
X149735868Y-102475000D01*
X150390856Y-102475000D01*
X150329075Y-102582007D01*
X150295000Y-102709174D01*
X150295000Y-102840826D01*
X150329075Y-102967993D01*
X150390856Y-103075000D01*
X149735868Y-103075000D01*
X149775588Y-103197250D01*
X149775589Y-103197253D01*
X149854195Y-103351524D01*
X149955967Y-103491602D01*
X150078397Y-103614032D01*
X150218475Y-103715804D01*
X150315056Y-103765015D01*
X150365852Y-103812990D01*
X150382647Y-103880811D01*
X150360109Y-103946946D01*
X150305394Y-103990397D01*
X150258761Y-103999500D01*
X149008676Y-103999500D01*
X148979235Y-103990855D01*
X148949249Y-103984332D01*
X148944233Y-103980577D01*
X148941637Y-103979815D01*
X148920995Y-103963181D01*
X148806180Y-103848366D01*
X148772695Y-103787043D01*
X148777679Y-103717351D01*
X148819551Y-103661418D01*
X148824953Y-103657594D01*
X148924655Y-103590977D01*
X149070977Y-103444655D01*
X149185941Y-103272598D01*
X149265130Y-103081420D01*
X149305500Y-102878465D01*
X149305500Y-102671535D01*
X149287692Y-102582007D01*
X149275550Y-102520962D01*
X149265131Y-102468587D01*
X149265130Y-102468580D01*
X149185941Y-102277402D01*
X149070977Y-102105345D01*
X149070975Y-102105342D01*
X148924657Y-101959024D01*
X148756655Y-101846770D01*
X148752598Y-101844059D01*
X148728784Y-101834195D01*
X148561420Y-101764870D01*
X148561412Y-101764868D01*
X148358469Y-101724500D01*
X148358465Y-101724500D01*
X148151535Y-101724500D01*
X148151530Y-101724500D01*
X147948587Y-101764868D01*
X147948579Y-101764870D01*
X147757403Y-101844058D01*
X147585342Y-101959024D01*
X147439024Y-102105342D01*
X147324058Y-102277403D01*
X147244870Y-102468579D01*
X147244868Y-102468587D01*
X147204500Y-102671530D01*
X147204500Y-102878469D01*
X147244868Y-103081412D01*
X147244870Y-103081420D01*
X147324058Y-103272596D01*
X147439024Y-103444657D01*
X147585340Y-103590973D01*
X147585343Y-103590975D01*
X147585345Y-103590977D01*
X147685028Y-103657582D01*
X147699390Y-103667178D01*
X147744196Y-103720791D01*
X147754500Y-103770281D01*
X147754500Y-103939108D01*
X147754500Y-104070892D01*
X147762166Y-104099502D01*
X147788608Y-104198187D01*
X147793056Y-104205891D01*
X147854500Y-104312314D01*
X148349500Y-104807314D01*
X148442686Y-104900500D01*
X148442687Y-104900501D01*
X148442689Y-104900502D01*
X148559794Y-104968113D01*
X148608010Y-105018680D01*
X148621232Y-105087287D01*
X148595264Y-105152152D01*
X148538350Y-105192680D01*
X148497794Y-105199500D01*
X147533676Y-105199500D01*
X147466637Y-105179815D01*
X147445995Y-105163181D01*
X146251819Y-103969005D01*
X146237115Y-103942077D01*
X146220523Y-103916259D01*
X146219631Y-103910058D01*
X146218334Y-103907682D01*
X146215500Y-103881324D01*
X146215500Y-103770281D01*
X146235185Y-103703242D01*
X146270610Y-103667178D01*
X146384655Y-103590977D01*
X146530977Y-103444655D01*
X146645941Y-103272598D01*
X146725130Y-103081420D01*
X146765500Y-102878465D01*
X146765500Y-102671535D01*
X146725130Y-102468580D01*
X146645941Y-102277402D01*
X146530977Y-102105345D01*
X146530975Y-102105342D01*
X146384657Y-101959024D01*
X146216655Y-101846770D01*
X146212598Y-101844059D01*
X146188784Y-101834195D01*
X146021420Y-101764870D01*
X146021412Y-101764868D01*
X145818469Y-101724500D01*
X145818465Y-101724500D01*
X145611535Y-101724500D01*
X145611530Y-101724500D01*
X145408587Y-101764868D01*
X145408579Y-101764870D01*
X145217403Y-101844058D01*
X145045342Y-101959024D01*
X144899024Y-102105342D01*
X144784058Y-102277403D01*
X144704870Y-102468579D01*
X144704868Y-102468587D01*
X144664500Y-102671530D01*
X144225500Y-102671530D01*
X144225500Y-101905249D01*
X144225499Y-101905247D01*
X144213868Y-101846770D01*
X144213867Y-101846769D01*
X144169552Y-101780447D01*
X144103230Y-101736132D01*
X144103229Y-101736131D01*
X144044752Y-101724500D01*
X144044748Y-101724500D01*
X142305252Y-101724500D01*
X142305247Y-101724500D01*
X142246770Y-101736131D01*
X142246769Y-101736132D01*
X142180447Y-101780447D01*
X142136132Y-101846769D01*
X142136131Y-101846770D01*
X142124500Y-101905247D01*
X142124500Y-103644752D01*
X142136131Y-103703229D01*
X142136132Y-103703230D01*
X142180447Y-103769552D01*
X142246769Y-103813867D01*
X142246770Y-103813868D01*
X142305247Y-103825499D01*
X142305250Y-103825500D01*
X142305252Y-103825500D01*
X142550500Y-103825500D01*
X142617539Y-103845185D01*
X142663294Y-103897989D01*
X142674500Y-103949500D01*
X142674500Y-106668000D01*
X142654815Y-106735039D01*
X142602011Y-106780794D01*
X142550500Y-106792000D01*
X142435730Y-106792000D01*
X142405300Y-106794853D01*
X142405298Y-106794853D01*
X142277119Y-106839706D01*
X142277117Y-106839707D01*
X142167850Y-106920350D01*
X142087207Y-107029617D01*
X142087206Y-107029619D01*
X142042353Y-107157798D01*
X142042353Y-107157800D01*
X142039500Y-107188230D01*
X141775500Y-107188230D01*
X141775500Y-101374500D01*
X141795185Y-101307461D01*
X141847989Y-101261706D01*
X141899500Y-101250500D01*
X157150500Y-101250500D01*
X157217539Y-101270185D01*
G37*
%TD.AperFunction*%
%TD*%
M02*
