%TF.GenerationSoftware,KiCad,Pcbnew,10.0.3*%
%TF.CreationDate,2026-06-10T11:57:27+02:00*%
%TF.ProjectId,CH340-USBC,43483334-302d-4555-9342-432e6b696361,rev?*%
%TF.SameCoordinates,Original*%
%TF.FileFunction,Legend,Top*%
%TF.FilePolarity,Positive*%
%FSLAX46Y46*%
G04 Gerber Fmt 4.6, Leading zero omitted, Abs format (unit mm)*
G04 Created by KiCad (PCBNEW 10.0.3) date 2026-06-10 11:57:27*
%MOMM*%
%LPD*%
G01*
G04 APERTURE LIST*
%ADD10C,0.100000*%
%ADD11C,0.200000*%
%ADD12C,0.150000*%
%ADD13C,0.120000*%
G04 APERTURE END LIST*
D10*
X142525000Y-118010000D02*
X143305000Y-118010000D01*
X142535000Y-120310000D02*
X143315000Y-120310000D01*
X142605000Y-118170000D02*
X143225000Y-118170000D01*
X142615000Y-120470000D02*
X143235000Y-120470000D01*
X142745000Y-118340000D02*
X143095000Y-118340000D01*
X142755000Y-120640000D02*
X143105000Y-120640000D01*
X142895000Y-118460000D02*
X142935000Y-118460000D01*
X142905000Y-120760000D02*
X142945000Y-120760000D01*
X142915000Y-118010000D02*
X142915000Y-117640000D01*
X142925000Y-120310000D02*
X142925000Y-119940000D01*
X142950000Y-122640000D02*
X142950000Y-123010000D01*
X142970000Y-122190000D02*
X142930000Y-122190000D01*
X143120000Y-122310000D02*
X142770000Y-122310000D01*
X143260000Y-122480000D02*
X142640000Y-122480000D01*
X143340000Y-122640000D02*
X142560000Y-122640000D01*
X145200000Y-114530000D02*
X145200000Y-114900000D01*
X145220000Y-114080000D02*
X145180000Y-114080000D01*
X145370000Y-114200000D02*
X145020000Y-114200000D01*
X145510000Y-114370000D02*
X144890000Y-114370000D01*
X145590000Y-114530000D02*
X144810000Y-114530000D01*
X150370000Y-105510000D02*
X151150000Y-105510000D01*
X150450000Y-105670000D02*
X151070000Y-105670000D01*
X150590000Y-105840000D02*
X150940000Y-105840000D01*
X150740000Y-105960000D02*
X150780000Y-105960000D01*
X150760000Y-105510000D02*
X150760000Y-105140000D01*
X153810000Y-114530000D02*
X153810000Y-114900000D01*
X153830000Y-114080000D02*
X153790000Y-114080000D01*
X153980000Y-114200000D02*
X153630000Y-114200000D01*
X154120000Y-114370000D02*
X153500000Y-114370000D01*
X154200000Y-114530000D02*
X153420000Y-114530000D01*
X155640000Y-117990000D02*
X156420000Y-117990000D01*
X155640000Y-120260000D02*
X156420000Y-120260000D01*
X155720000Y-118150000D02*
X156340000Y-118150000D01*
X155720000Y-120420000D02*
X156340000Y-120420000D01*
X155860000Y-118320000D02*
X156210000Y-118320000D01*
X155860000Y-120590000D02*
X156210000Y-120590000D01*
X156010000Y-118440000D02*
X156050000Y-118440000D01*
X156010000Y-120710000D02*
X156050000Y-120710000D01*
X156030000Y-117990000D02*
X156030000Y-117620000D01*
X156030000Y-120260000D02*
X156030000Y-119890000D01*
X156055000Y-122600000D02*
X156055000Y-122970000D01*
X156075000Y-122150000D02*
X156035000Y-122150000D01*
X156225000Y-122270000D02*
X155875000Y-122270000D01*
X156365000Y-122440000D02*
X155745000Y-122440000D01*
X156445000Y-122600000D02*
X155665000Y-122600000D01*
X145653408Y-123822749D02*
X145615312Y-123860845D01*
X145615312Y-123860845D02*
X145501027Y-123898940D01*
X145501027Y-123898940D02*
X145424836Y-123898940D01*
X145424836Y-123898940D02*
X145310550Y-123860845D01*
X145310550Y-123860845D02*
X145234360Y-123784654D01*
X145234360Y-123784654D02*
X145196265Y-123708464D01*
X145196265Y-123708464D02*
X145158169Y-123556083D01*
X145158169Y-123556083D02*
X145158169Y-123441797D01*
X145158169Y-123441797D02*
X145196265Y-123289416D01*
X145196265Y-123289416D02*
X145234360Y-123213225D01*
X145234360Y-123213225D02*
X145310550Y-123137035D01*
X145310550Y-123137035D02*
X145424836Y-123098940D01*
X145424836Y-123098940D02*
X145501027Y-123098940D01*
X145501027Y-123098940D02*
X145615312Y-123137035D01*
X145615312Y-123137035D02*
X145653408Y-123175130D01*
X145996265Y-123898940D02*
X145996265Y-123098940D01*
X145996265Y-123479892D02*
X146453408Y-123479892D01*
X146453408Y-123898940D02*
X146453408Y-123098940D01*
X146758169Y-123098940D02*
X147253407Y-123098940D01*
X147253407Y-123098940D02*
X146986741Y-123403702D01*
X146986741Y-123403702D02*
X147101026Y-123403702D01*
X147101026Y-123403702D02*
X147177217Y-123441797D01*
X147177217Y-123441797D02*
X147215312Y-123479892D01*
X147215312Y-123479892D02*
X147253407Y-123556083D01*
X147253407Y-123556083D02*
X147253407Y-123746559D01*
X147253407Y-123746559D02*
X147215312Y-123822749D01*
X147215312Y-123822749D02*
X147177217Y-123860845D01*
X147177217Y-123860845D02*
X147101026Y-123898940D01*
X147101026Y-123898940D02*
X146872455Y-123898940D01*
X146872455Y-123898940D02*
X146796264Y-123860845D01*
X146796264Y-123860845D02*
X146758169Y-123822749D01*
X147939122Y-123365606D02*
X147939122Y-123898940D01*
X147748646Y-123060845D02*
X147558169Y-123632273D01*
X147558169Y-123632273D02*
X148053408Y-123632273D01*
X148510551Y-123098940D02*
X148586741Y-123098940D01*
X148586741Y-123098940D02*
X148662932Y-123137035D01*
X148662932Y-123137035D02*
X148701027Y-123175130D01*
X148701027Y-123175130D02*
X148739122Y-123251321D01*
X148739122Y-123251321D02*
X148777217Y-123403702D01*
X148777217Y-123403702D02*
X148777217Y-123594178D01*
X148777217Y-123594178D02*
X148739122Y-123746559D01*
X148739122Y-123746559D02*
X148701027Y-123822749D01*
X148701027Y-123822749D02*
X148662932Y-123860845D01*
X148662932Y-123860845D02*
X148586741Y-123898940D01*
X148586741Y-123898940D02*
X148510551Y-123898940D01*
X148510551Y-123898940D02*
X148434360Y-123860845D01*
X148434360Y-123860845D02*
X148396265Y-123822749D01*
X148396265Y-123822749D02*
X148358170Y-123746559D01*
X148358170Y-123746559D02*
X148320074Y-123594178D01*
X148320074Y-123594178D02*
X148320074Y-123403702D01*
X148320074Y-123403702D02*
X148358170Y-123251321D01*
X148358170Y-123251321D02*
X148396265Y-123175130D01*
X148396265Y-123175130D02*
X148434360Y-123137035D01*
X148434360Y-123137035D02*
X148510551Y-123098940D01*
X149120075Y-123898940D02*
X149120075Y-123098940D01*
X149120075Y-123098940D02*
X149577218Y-123898940D01*
X149577218Y-123898940D02*
X149577218Y-123098940D01*
X149958170Y-123594178D02*
X150567694Y-123594178D01*
X150948646Y-123098940D02*
X150948646Y-123746559D01*
X150948646Y-123746559D02*
X150986741Y-123822749D01*
X150986741Y-123822749D02*
X151024836Y-123860845D01*
X151024836Y-123860845D02*
X151101027Y-123898940D01*
X151101027Y-123898940D02*
X151253408Y-123898940D01*
X151253408Y-123898940D02*
X151329598Y-123860845D01*
X151329598Y-123860845D02*
X151367693Y-123822749D01*
X151367693Y-123822749D02*
X151405789Y-123746559D01*
X151405789Y-123746559D02*
X151405789Y-123098940D01*
X151748645Y-123860845D02*
X151862931Y-123898940D01*
X151862931Y-123898940D02*
X152053407Y-123898940D01*
X152053407Y-123898940D02*
X152129598Y-123860845D01*
X152129598Y-123860845D02*
X152167693Y-123822749D01*
X152167693Y-123822749D02*
X152205788Y-123746559D01*
X152205788Y-123746559D02*
X152205788Y-123670368D01*
X152205788Y-123670368D02*
X152167693Y-123594178D01*
X152167693Y-123594178D02*
X152129598Y-123556083D01*
X152129598Y-123556083D02*
X152053407Y-123517987D01*
X152053407Y-123517987D02*
X151901026Y-123479892D01*
X151901026Y-123479892D02*
X151824836Y-123441797D01*
X151824836Y-123441797D02*
X151786741Y-123403702D01*
X151786741Y-123403702D02*
X151748645Y-123327511D01*
X151748645Y-123327511D02*
X151748645Y-123251321D01*
X151748645Y-123251321D02*
X151786741Y-123175130D01*
X151786741Y-123175130D02*
X151824836Y-123137035D01*
X151824836Y-123137035D02*
X151901026Y-123098940D01*
X151901026Y-123098940D02*
X152091503Y-123098940D01*
X152091503Y-123098940D02*
X152205788Y-123137035D01*
X152815312Y-123479892D02*
X152929598Y-123517987D01*
X152929598Y-123517987D02*
X152967693Y-123556083D01*
X152967693Y-123556083D02*
X153005789Y-123632273D01*
X153005789Y-123632273D02*
X153005789Y-123746559D01*
X153005789Y-123746559D02*
X152967693Y-123822749D01*
X152967693Y-123822749D02*
X152929598Y-123860845D01*
X152929598Y-123860845D02*
X152853408Y-123898940D01*
X152853408Y-123898940D02*
X152548646Y-123898940D01*
X152548646Y-123898940D02*
X152548646Y-123098940D01*
X152548646Y-123098940D02*
X152815312Y-123098940D01*
X152815312Y-123098940D02*
X152891503Y-123137035D01*
X152891503Y-123137035D02*
X152929598Y-123175130D01*
X152929598Y-123175130D02*
X152967693Y-123251321D01*
X152967693Y-123251321D02*
X152967693Y-123327511D01*
X152967693Y-123327511D02*
X152929598Y-123403702D01*
X152929598Y-123403702D02*
X152891503Y-123441797D01*
X152891503Y-123441797D02*
X152815312Y-123479892D01*
X152815312Y-123479892D02*
X152548646Y-123479892D01*
X153805789Y-123822749D02*
X153767693Y-123860845D01*
X153767693Y-123860845D02*
X153653408Y-123898940D01*
X153653408Y-123898940D02*
X153577217Y-123898940D01*
X153577217Y-123898940D02*
X153462931Y-123860845D01*
X153462931Y-123860845D02*
X153386741Y-123784654D01*
X153386741Y-123784654D02*
X153348646Y-123708464D01*
X153348646Y-123708464D02*
X153310550Y-123556083D01*
X153310550Y-123556083D02*
X153310550Y-123441797D01*
X153310550Y-123441797D02*
X153348646Y-123289416D01*
X153348646Y-123289416D02*
X153386741Y-123213225D01*
X153386741Y-123213225D02*
X153462931Y-123137035D01*
X153462931Y-123137035D02*
X153577217Y-123098940D01*
X153577217Y-123098940D02*
X153653408Y-123098940D01*
X153653408Y-123098940D02*
X153767693Y-123137035D01*
X153767693Y-123137035D02*
X153805789Y-123175130D01*
X147446265Y-122656895D02*
X147446265Y-121856895D01*
X148246264Y-121894990D02*
X148170074Y-121856895D01*
X148170074Y-121856895D02*
X148055788Y-121856895D01*
X148055788Y-121856895D02*
X147941502Y-121894990D01*
X147941502Y-121894990D02*
X147865312Y-121971180D01*
X147865312Y-121971180D02*
X147827217Y-122047371D01*
X147827217Y-122047371D02*
X147789121Y-122199752D01*
X147789121Y-122199752D02*
X147789121Y-122314038D01*
X147789121Y-122314038D02*
X147827217Y-122466419D01*
X147827217Y-122466419D02*
X147865312Y-122542609D01*
X147865312Y-122542609D02*
X147941502Y-122618800D01*
X147941502Y-122618800D02*
X148055788Y-122656895D01*
X148055788Y-122656895D02*
X148131979Y-122656895D01*
X148131979Y-122656895D02*
X148246264Y-122618800D01*
X148246264Y-122618800D02*
X148284360Y-122580704D01*
X148284360Y-122580704D02*
X148284360Y-122314038D01*
X148284360Y-122314038D02*
X148131979Y-122314038D01*
X148627217Y-122656895D02*
X148627217Y-121856895D01*
X148627217Y-121856895D02*
X149084360Y-122656895D01*
X149084360Y-122656895D02*
X149084360Y-121856895D01*
X149846264Y-121856895D02*
X149465312Y-121856895D01*
X149465312Y-121856895D02*
X149427216Y-122237847D01*
X149427216Y-122237847D02*
X149465312Y-122199752D01*
X149465312Y-122199752D02*
X149541502Y-122161657D01*
X149541502Y-122161657D02*
X149731978Y-122161657D01*
X149731978Y-122161657D02*
X149808169Y-122199752D01*
X149808169Y-122199752D02*
X149846264Y-122237847D01*
X149846264Y-122237847D02*
X149884359Y-122314038D01*
X149884359Y-122314038D02*
X149884359Y-122504514D01*
X149884359Y-122504514D02*
X149846264Y-122580704D01*
X149846264Y-122580704D02*
X149808169Y-122618800D01*
X149808169Y-122618800D02*
X149731978Y-122656895D01*
X149731978Y-122656895D02*
X149541502Y-122656895D01*
X149541502Y-122656895D02*
X149465312Y-122618800D01*
X149465312Y-122618800D02*
X149427216Y-122580704D01*
X150608169Y-121856895D02*
X150227217Y-121856895D01*
X150227217Y-121856895D02*
X150189121Y-122237847D01*
X150189121Y-122237847D02*
X150227217Y-122199752D01*
X150227217Y-122199752D02*
X150303407Y-122161657D01*
X150303407Y-122161657D02*
X150493883Y-122161657D01*
X150493883Y-122161657D02*
X150570074Y-122199752D01*
X150570074Y-122199752D02*
X150608169Y-122237847D01*
X150608169Y-122237847D02*
X150646264Y-122314038D01*
X150646264Y-122314038D02*
X150646264Y-122504514D01*
X150646264Y-122504514D02*
X150608169Y-122580704D01*
X150608169Y-122580704D02*
X150570074Y-122618800D01*
X150570074Y-122618800D02*
X150493883Y-122656895D01*
X150493883Y-122656895D02*
X150303407Y-122656895D01*
X150303407Y-122656895D02*
X150227217Y-122618800D01*
X150227217Y-122618800D02*
X150189121Y-122580704D01*
X151370074Y-121856895D02*
X150989122Y-121856895D01*
X150989122Y-121856895D02*
X150951026Y-122237847D01*
X150951026Y-122237847D02*
X150989122Y-122199752D01*
X150989122Y-122199752D02*
X151065312Y-122161657D01*
X151065312Y-122161657D02*
X151255788Y-122161657D01*
X151255788Y-122161657D02*
X151331979Y-122199752D01*
X151331979Y-122199752D02*
X151370074Y-122237847D01*
X151370074Y-122237847D02*
X151408169Y-122314038D01*
X151408169Y-122314038D02*
X151408169Y-122504514D01*
X151408169Y-122504514D02*
X151370074Y-122580704D01*
X151370074Y-122580704D02*
X151331979Y-122618800D01*
X151331979Y-122618800D02*
X151255788Y-122656895D01*
X151255788Y-122656895D02*
X151065312Y-122656895D01*
X151065312Y-122656895D02*
X150989122Y-122618800D01*
X150989122Y-122618800D02*
X150951026Y-122580704D01*
X142693561Y-115999925D02*
X143226895Y-115809449D01*
X143226895Y-115809449D02*
X142693561Y-115618972D01*
X143226895Y-114895163D02*
X143226895Y-115352306D01*
X143226895Y-115123734D02*
X142426895Y-115123734D01*
X142426895Y-115123734D02*
X142541180Y-115199925D01*
X142541180Y-115199925D02*
X142617371Y-115276115D01*
X142617371Y-115276115D02*
X142655466Y-115352306D01*
X143150704Y-114552305D02*
X143188800Y-114514210D01*
X143188800Y-114514210D02*
X143226895Y-114552305D01*
X143226895Y-114552305D02*
X143188800Y-114590401D01*
X143188800Y-114590401D02*
X143150704Y-114552305D01*
X143150704Y-114552305D02*
X143226895Y-114552305D01*
X142426895Y-114018972D02*
X142426895Y-113942782D01*
X142426895Y-113942782D02*
X142464990Y-113866591D01*
X142464990Y-113866591D02*
X142503085Y-113828496D01*
X142503085Y-113828496D02*
X142579276Y-113790401D01*
X142579276Y-113790401D02*
X142731657Y-113752306D01*
X142731657Y-113752306D02*
X142922133Y-113752306D01*
X142922133Y-113752306D02*
X143074514Y-113790401D01*
X143074514Y-113790401D02*
X143150704Y-113828496D01*
X143150704Y-113828496D02*
X143188800Y-113866591D01*
X143188800Y-113866591D02*
X143226895Y-113942782D01*
X143226895Y-113942782D02*
X143226895Y-114018972D01*
X143226895Y-114018972D02*
X143188800Y-114095163D01*
X143188800Y-114095163D02*
X143150704Y-114133258D01*
X143150704Y-114133258D02*
X143074514Y-114171353D01*
X143074514Y-114171353D02*
X142922133Y-114209449D01*
X142922133Y-114209449D02*
X142731657Y-114209449D01*
X142731657Y-114209449D02*
X142579276Y-114171353D01*
X142579276Y-114171353D02*
X142503085Y-114133258D01*
X142503085Y-114133258D02*
X142464990Y-114095163D01*
X142464990Y-114095163D02*
X142426895Y-114018972D01*
D11*
X146299673Y-114577219D02*
X146299673Y-113577219D01*
X146299673Y-113577219D02*
X146680625Y-113577219D01*
X146680625Y-113577219D02*
X146775863Y-113624838D01*
X146775863Y-113624838D02*
X146823482Y-113672457D01*
X146823482Y-113672457D02*
X146871101Y-113767695D01*
X146871101Y-113767695D02*
X146871101Y-113910552D01*
X146871101Y-113910552D02*
X146823482Y-114005790D01*
X146823482Y-114005790D02*
X146775863Y-114053409D01*
X146775863Y-114053409D02*
X146680625Y-114101028D01*
X146680625Y-114101028D02*
X146299673Y-114101028D01*
X147204435Y-113577219D02*
X147442530Y-114577219D01*
X147442530Y-114577219D02*
X147633006Y-113862933D01*
X147633006Y-113862933D02*
X147823482Y-114577219D01*
X147823482Y-114577219D02*
X148061578Y-113577219D01*
X149013958Y-114577219D02*
X148680625Y-114101028D01*
X148442530Y-114577219D02*
X148442530Y-113577219D01*
X148442530Y-113577219D02*
X148823482Y-113577219D01*
X148823482Y-113577219D02*
X148918720Y-113624838D01*
X148918720Y-113624838D02*
X148966339Y-113672457D01*
X148966339Y-113672457D02*
X149013958Y-113767695D01*
X149013958Y-113767695D02*
X149013958Y-113910552D01*
X149013958Y-113910552D02*
X148966339Y-114005790D01*
X148966339Y-114005790D02*
X148918720Y-114053409D01*
X148918720Y-114053409D02*
X148823482Y-114101028D01*
X148823482Y-114101028D02*
X148442530Y-114101028D01*
X142547219Y-106143183D02*
X143547219Y-105809850D01*
X143547219Y-105809850D02*
X142547219Y-105476517D01*
X142547219Y-105238421D02*
X142547219Y-104619374D01*
X142547219Y-104619374D02*
X142928171Y-104952707D01*
X142928171Y-104952707D02*
X142928171Y-104809850D01*
X142928171Y-104809850D02*
X142975790Y-104714612D01*
X142975790Y-104714612D02*
X143023409Y-104666993D01*
X143023409Y-104666993D02*
X143118647Y-104619374D01*
X143118647Y-104619374D02*
X143356742Y-104619374D01*
X143356742Y-104619374D02*
X143451980Y-104666993D01*
X143451980Y-104666993D02*
X143499600Y-104714612D01*
X143499600Y-104714612D02*
X143547219Y-104809850D01*
X143547219Y-104809850D02*
X143547219Y-105095564D01*
X143547219Y-105095564D02*
X143499600Y-105190802D01*
X143499600Y-105190802D02*
X143451980Y-105238421D01*
X146317219Y-105778898D02*
X145841028Y-106112231D01*
X146317219Y-106350326D02*
X145317219Y-106350326D01*
X145317219Y-106350326D02*
X145317219Y-105969374D01*
X145317219Y-105969374D02*
X145364838Y-105874136D01*
X145364838Y-105874136D02*
X145412457Y-105826517D01*
X145412457Y-105826517D02*
X145507695Y-105778898D01*
X145507695Y-105778898D02*
X145650552Y-105778898D01*
X145650552Y-105778898D02*
X145745790Y-105826517D01*
X145745790Y-105826517D02*
X145793409Y-105874136D01*
X145793409Y-105874136D02*
X145841028Y-105969374D01*
X145841028Y-105969374D02*
X145841028Y-106350326D01*
X145317219Y-105445564D02*
X146317219Y-104778898D01*
X145317219Y-104778898D02*
X146317219Y-105445564D01*
X147917219Y-106363183D02*
X147917219Y-105791755D01*
X148917219Y-106077469D02*
X147917219Y-106077469D01*
X147917219Y-105553659D02*
X148917219Y-104886993D01*
X147917219Y-104886993D02*
X148917219Y-105553659D01*
X152987219Y-105884136D02*
X152987219Y-106360326D01*
X152987219Y-106360326D02*
X153463409Y-106407945D01*
X153463409Y-106407945D02*
X153415790Y-106360326D01*
X153415790Y-106360326D02*
X153368171Y-106265088D01*
X153368171Y-106265088D02*
X153368171Y-106026993D01*
X153368171Y-106026993D02*
X153415790Y-105931755D01*
X153415790Y-105931755D02*
X153463409Y-105884136D01*
X153463409Y-105884136D02*
X153558647Y-105836517D01*
X153558647Y-105836517D02*
X153796742Y-105836517D01*
X153796742Y-105836517D02*
X153891980Y-105884136D01*
X153891980Y-105884136D02*
X153939600Y-105931755D01*
X153939600Y-105931755D02*
X153987219Y-106026993D01*
X153987219Y-106026993D02*
X153987219Y-106265088D01*
X153987219Y-106265088D02*
X153939600Y-106360326D01*
X153939600Y-106360326D02*
X153891980Y-106407945D01*
X152987219Y-105550802D02*
X153987219Y-105217469D01*
X153987219Y-105217469D02*
X152987219Y-104884136D01*
X156387219Y-106468898D02*
X155911028Y-106802231D01*
X156387219Y-107040326D02*
X155387219Y-107040326D01*
X155387219Y-107040326D02*
X155387219Y-106659374D01*
X155387219Y-106659374D02*
X155434838Y-106564136D01*
X155434838Y-106564136D02*
X155482457Y-106516517D01*
X155482457Y-106516517D02*
X155577695Y-106468898D01*
X155577695Y-106468898D02*
X155720552Y-106468898D01*
X155720552Y-106468898D02*
X155815790Y-106516517D01*
X155815790Y-106516517D02*
X155863409Y-106564136D01*
X155863409Y-106564136D02*
X155911028Y-106659374D01*
X155911028Y-106659374D02*
X155911028Y-107040326D01*
X155387219Y-106183183D02*
X155387219Y-105611755D01*
X156387219Y-105897469D02*
X155387219Y-105897469D01*
X156339600Y-105326040D02*
X156387219Y-105183183D01*
X156387219Y-105183183D02*
X156387219Y-104945088D01*
X156387219Y-104945088D02*
X156339600Y-104849850D01*
X156339600Y-104849850D02*
X156291980Y-104802231D01*
X156291980Y-104802231D02*
X156196742Y-104754612D01*
X156196742Y-104754612D02*
X156101504Y-104754612D01*
X156101504Y-104754612D02*
X156006266Y-104802231D01*
X156006266Y-104802231D02*
X155958647Y-104849850D01*
X155958647Y-104849850D02*
X155911028Y-104945088D01*
X155911028Y-104945088D02*
X155863409Y-105135564D01*
X155863409Y-105135564D02*
X155815790Y-105230802D01*
X155815790Y-105230802D02*
X155768171Y-105278421D01*
X155768171Y-105278421D02*
X155672933Y-105326040D01*
X155672933Y-105326040D02*
X155577695Y-105326040D01*
X155577695Y-105326040D02*
X155482457Y-105278421D01*
X155482457Y-105278421D02*
X155434838Y-105230802D01*
X155434838Y-105230802D02*
X155387219Y-105135564D01*
X155387219Y-105135564D02*
X155387219Y-104897469D01*
X155387219Y-104897469D02*
X155434838Y-104754612D01*
D12*
X144229580Y-112976666D02*
X144277200Y-113024285D01*
X144277200Y-113024285D02*
X144324819Y-113167142D01*
X144324819Y-113167142D02*
X144324819Y-113262380D01*
X144324819Y-113262380D02*
X144277200Y-113405237D01*
X144277200Y-113405237D02*
X144181961Y-113500475D01*
X144181961Y-113500475D02*
X144086723Y-113548094D01*
X144086723Y-113548094D02*
X143896247Y-113595713D01*
X143896247Y-113595713D02*
X143753390Y-113595713D01*
X143753390Y-113595713D02*
X143562914Y-113548094D01*
X143562914Y-113548094D02*
X143467676Y-113500475D01*
X143467676Y-113500475D02*
X143372438Y-113405237D01*
X143372438Y-113405237D02*
X143324819Y-113262380D01*
X143324819Y-113262380D02*
X143324819Y-113167142D01*
X143324819Y-113167142D02*
X143372438Y-113024285D01*
X143372438Y-113024285D02*
X143420057Y-112976666D01*
X143420057Y-112595713D02*
X143372438Y-112548094D01*
X143372438Y-112548094D02*
X143324819Y-112452856D01*
X143324819Y-112452856D02*
X143324819Y-112214761D01*
X143324819Y-112214761D02*
X143372438Y-112119523D01*
X143372438Y-112119523D02*
X143420057Y-112071904D01*
X143420057Y-112071904D02*
X143515295Y-112024285D01*
X143515295Y-112024285D02*
X143610533Y-112024285D01*
X143610533Y-112024285D02*
X143753390Y-112071904D01*
X143753390Y-112071904D02*
X144324819Y-112643332D01*
X144324819Y-112643332D02*
X144324819Y-112024285D01*
X149166666Y-119854819D02*
X149166666Y-120569104D01*
X149166666Y-120569104D02*
X149119047Y-120711961D01*
X149119047Y-120711961D02*
X149023809Y-120807200D01*
X149023809Y-120807200D02*
X148880952Y-120854819D01*
X148880952Y-120854819D02*
X148785714Y-120854819D01*
X150166666Y-120854819D02*
X149595238Y-120854819D01*
X149880952Y-120854819D02*
X149880952Y-119854819D01*
X149880952Y-119854819D02*
X149785714Y-119997676D01*
X149785714Y-119997676D02*
X149690476Y-120092914D01*
X149690476Y-120092914D02*
X149595238Y-120140533D01*
X147306905Y-108052319D02*
X147306905Y-107052319D01*
X147306905Y-107052319D02*
X147545000Y-107052319D01*
X147545000Y-107052319D02*
X147687857Y-107099938D01*
X147687857Y-107099938D02*
X147783095Y-107195176D01*
X147783095Y-107195176D02*
X147830714Y-107290414D01*
X147830714Y-107290414D02*
X147878333Y-107480890D01*
X147878333Y-107480890D02*
X147878333Y-107623747D01*
X147878333Y-107623747D02*
X147830714Y-107814223D01*
X147830714Y-107814223D02*
X147783095Y-107909461D01*
X147783095Y-107909461D02*
X147687857Y-108004700D01*
X147687857Y-108004700D02*
X147545000Y-108052319D01*
X147545000Y-108052319D02*
X147306905Y-108052319D01*
X148830714Y-108052319D02*
X148259286Y-108052319D01*
X148545000Y-108052319D02*
X148545000Y-107052319D01*
X148545000Y-107052319D02*
X148449762Y-107195176D01*
X148449762Y-107195176D02*
X148354524Y-107290414D01*
X148354524Y-107290414D02*
X148259286Y-107338033D01*
X145538333Y-107969819D02*
X145205000Y-107493628D01*
X144966905Y-107969819D02*
X144966905Y-106969819D01*
X144966905Y-106969819D02*
X145347857Y-106969819D01*
X145347857Y-106969819D02*
X145443095Y-107017438D01*
X145443095Y-107017438D02*
X145490714Y-107065057D01*
X145490714Y-107065057D02*
X145538333Y-107160295D01*
X145538333Y-107160295D02*
X145538333Y-107303152D01*
X145538333Y-107303152D02*
X145490714Y-107398390D01*
X145490714Y-107398390D02*
X145443095Y-107446009D01*
X145443095Y-107446009D02*
X145347857Y-107493628D01*
X145347857Y-107493628D02*
X144966905Y-107493628D01*
X145871667Y-106969819D02*
X146490714Y-106969819D01*
X146490714Y-106969819D02*
X146157381Y-107350771D01*
X146157381Y-107350771D02*
X146300238Y-107350771D01*
X146300238Y-107350771D02*
X146395476Y-107398390D01*
X146395476Y-107398390D02*
X146443095Y-107446009D01*
X146443095Y-107446009D02*
X146490714Y-107541247D01*
X146490714Y-107541247D02*
X146490714Y-107779342D01*
X146490714Y-107779342D02*
X146443095Y-107874580D01*
X146443095Y-107874580D02*
X146395476Y-107922200D01*
X146395476Y-107922200D02*
X146300238Y-107969819D01*
X146300238Y-107969819D02*
X146014524Y-107969819D01*
X146014524Y-107969819D02*
X145919286Y-107922200D01*
X145919286Y-107922200D02*
X145871667Y-107874580D01*
X155038095Y-112829819D02*
X155038095Y-113639342D01*
X155038095Y-113639342D02*
X155085714Y-113734580D01*
X155085714Y-113734580D02*
X155133333Y-113782200D01*
X155133333Y-113782200D02*
X155228571Y-113829819D01*
X155228571Y-113829819D02*
X155419047Y-113829819D01*
X155419047Y-113829819D02*
X155514285Y-113782200D01*
X155514285Y-113782200D02*
X155561904Y-113734580D01*
X155561904Y-113734580D02*
X155609523Y-113639342D01*
X155609523Y-113639342D02*
X155609523Y-112829819D01*
X156609523Y-113829819D02*
X156038095Y-113829819D01*
X156323809Y-113829819D02*
X156323809Y-112829819D01*
X156323809Y-112829819D02*
X156228571Y-112972676D01*
X156228571Y-112972676D02*
X156133333Y-113067914D01*
X156133333Y-113067914D02*
X156038095Y-113115533D01*
%TO.C,C2*%
D13*
X142230000Y-108506248D02*
X142230000Y-109928752D01*
X144050000Y-108506248D02*
X144050000Y-109928752D01*
%TO.C,J1*%
X144920000Y-118550000D02*
X144920000Y-120470000D01*
X144920000Y-124185000D02*
X144920000Y-122480000D01*
X154080000Y-120470000D02*
X154080000Y-118550000D01*
X154080000Y-122480000D02*
X154080000Y-124185000D01*
X154080000Y-124185000D02*
X144920000Y-124185000D01*
%TO.C,D1*%
X146885000Y-109110000D02*
X146885000Y-113170000D01*
X146885000Y-113170000D02*
X149155000Y-113170000D01*
X149155000Y-113170000D02*
X149155000Y-109110000D01*
%TO.C,R3*%
X144770000Y-111467064D02*
X144770000Y-110012936D01*
X146590000Y-111467064D02*
X146590000Y-110012936D01*
%TO.C,U1*%
X149565000Y-110400000D02*
X149565000Y-108450000D01*
X149565000Y-110400000D02*
X149565000Y-112350000D01*
X154685000Y-110400000D02*
X154685000Y-108450000D01*
X154685000Y-110400000D02*
X154685000Y-112350000D01*
X149660000Y-113100000D02*
X149330000Y-113340000D01*
X149330000Y-112860000D01*
X149660000Y-113100000D01*
G36*
X149660000Y-113100000D02*
G01*
X149330000Y-113340000D01*
X149330000Y-112860000D01*
X149660000Y-113100000D01*
G37*
%TD*%
M02*
