%TF.GenerationSoftware,KiCad,Pcbnew,10.0.3*%
%TF.CreationDate,2026-06-10T11:57:27+02:00*%
%TF.ProjectId,CH340-USBC,43483334-302d-4555-9342-432e6b696361,rev?*%
%TF.SameCoordinates,Original*%
%TF.FileFunction,Copper,L3,Inr*%
%TF.FilePolarity,Positive*%
%FSLAX46Y46*%
G04 Gerber Fmt 4.6, Leading zero omitted, Abs format (unit mm)*
G04 Created by KiCad (PCBNEW 10.0.3) date 2026-06-10 11:57:27*
%MOMM*%
%LPD*%
G01*
G04 APERTURE LIST*
%TA.AperFunction,ComponentPad*%
%ADD10O,1.000000X2.100000*%
%TD*%
%TA.AperFunction,ComponentPad*%
%ADD11O,1.000000X1.800000*%
%TD*%
%TA.AperFunction,ComponentPad*%
%ADD12R,1.700000X1.700000*%
%TD*%
%TA.AperFunction,ComponentPad*%
%ADD13O,1.700000X1.700000*%
%TD*%
%TA.AperFunction,ViaPad*%
%ADD14C,0.600000*%
%TD*%
G04 APERTURE END LIST*
D10*
%TO.N,Earth*%
%TO.C,J1*%
X145180000Y-117275000D03*
D11*
X145180000Y-121475000D03*
D10*
X153820000Y-117275000D03*
D11*
X153820000Y-121475000D03*
%TD*%
D12*
%TO.N,+3V3*%
%TO.C,J2*%
X143175000Y-102775000D03*
D13*
%TO.N,/RX*%
X145715000Y-102775000D03*
%TO.N,/TX*%
X148255000Y-102775000D03*
%TO.N,GND*%
X150795000Y-102775000D03*
%TO.N,+5V*%
X153335000Y-102775000D03*
%TO.N,/RTS*%
X155875000Y-102775000D03*
%TD*%
D14*
%TO.N,GND*%
X154990000Y-106370000D03*
X156050000Y-119500000D03*
X142925000Y-119500000D03*
X142950000Y-123375000D03*
X153800000Y-115275000D03*
X156050000Y-123350000D03*
X142900000Y-117220000D03*
X156030000Y-117240000D03*
X145200000Y-115300000D03*
%TO.N,+5V*%
X142575000Y-112320000D03*
%TO.N,Net-(J1-CC1)*%
X148250000Y-115450000D03*
%TO.N,Net-(J1-CC2)*%
X151250000Y-115425000D03*
%TD*%
%TA.AperFunction,Conductor*%
%TO.N,GND*%
G36*
X157217539Y-101270185D02*
G01*
X157263294Y-101322989D01*
X157274500Y-101374500D01*
X157274500Y-124125500D01*
X157254815Y-124192539D01*
X157202011Y-124238294D01*
X157150500Y-124249500D01*
X141899500Y-124249500D01*
X141832461Y-124229815D01*
X141786706Y-124177011D01*
X141775500Y-124125500D01*
X141775500Y-121943995D01*
X144479499Y-121943995D01*
X144506418Y-122079322D01*
X144506421Y-122079332D01*
X144559221Y-122206804D01*
X144559228Y-122206817D01*
X144635885Y-122321541D01*
X144635888Y-122321545D01*
X144733454Y-122419111D01*
X144733458Y-122419114D01*
X144848182Y-122495771D01*
X144848195Y-122495778D01*
X144975667Y-122548578D01*
X144975672Y-122548580D01*
X144975676Y-122548580D01*
X144975677Y-122548581D01*
X145111004Y-122575500D01*
X145111007Y-122575500D01*
X145248995Y-122575500D01*
X145340041Y-122557389D01*
X145384328Y-122548580D01*
X145511811Y-122495775D01*
X145626542Y-122419114D01*
X145724114Y-122321542D01*
X145800775Y-122206811D01*
X145853580Y-122079328D01*
X145880500Y-121943995D01*
X153119499Y-121943995D01*
X153146418Y-122079322D01*
X153146421Y-122079332D01*
X153199221Y-122206804D01*
X153199228Y-122206817D01*
X153275885Y-122321541D01*
X153275888Y-122321545D01*
X153373454Y-122419111D01*
X153373458Y-122419114D01*
X153488182Y-122495771D01*
X153488195Y-122495778D01*
X153615667Y-122548578D01*
X153615672Y-122548580D01*
X153615676Y-122548580D01*
X153615677Y-122548581D01*
X153751004Y-122575500D01*
X153751007Y-122575500D01*
X153888995Y-122575500D01*
X153980041Y-122557389D01*
X154024328Y-122548580D01*
X154151811Y-122495775D01*
X154266542Y-122419114D01*
X154364114Y-122321542D01*
X154440775Y-122206811D01*
X154493580Y-122079328D01*
X154520500Y-121943993D01*
X154520500Y-121006007D01*
X154520500Y-121006004D01*
X154493581Y-120870677D01*
X154493580Y-120870676D01*
X154493580Y-120870672D01*
X154493578Y-120870667D01*
X154440778Y-120743195D01*
X154440771Y-120743182D01*
X154364114Y-120628458D01*
X154364111Y-120628454D01*
X154266545Y-120530888D01*
X154266541Y-120530885D01*
X154151817Y-120454228D01*
X154151804Y-120454221D01*
X154024332Y-120401421D01*
X154024322Y-120401418D01*
X153888995Y-120374500D01*
X153888993Y-120374500D01*
X153751007Y-120374500D01*
X153751005Y-120374500D01*
X153615677Y-120401418D01*
X153615667Y-120401421D01*
X153488195Y-120454221D01*
X153488182Y-120454228D01*
X153373458Y-120530885D01*
X153373454Y-120530888D01*
X153275888Y-120628454D01*
X153275885Y-120628458D01*
X153199228Y-120743182D01*
X153199221Y-120743195D01*
X153146421Y-120870667D01*
X153146418Y-120870677D01*
X153119500Y-121006004D01*
X153119500Y-121006007D01*
X153119500Y-121943993D01*
X153119500Y-121943995D01*
X153119499Y-121943995D01*
X145880500Y-121943995D01*
X145880500Y-121943993D01*
X145880500Y-121006007D01*
X145880500Y-121006004D01*
X145853581Y-120870677D01*
X145853580Y-120870676D01*
X145853580Y-120870672D01*
X145853578Y-120870667D01*
X145800778Y-120743195D01*
X145800771Y-120743182D01*
X145724114Y-120628458D01*
X145724111Y-120628454D01*
X145626545Y-120530888D01*
X145626541Y-120530885D01*
X145511817Y-120454228D01*
X145511804Y-120454221D01*
X145384332Y-120401421D01*
X145384322Y-120401418D01*
X145248995Y-120374500D01*
X145248993Y-120374500D01*
X145111007Y-120374500D01*
X145111005Y-120374500D01*
X144975677Y-120401418D01*
X144975667Y-120401421D01*
X144848195Y-120454221D01*
X144848182Y-120454228D01*
X144733458Y-120530885D01*
X144733454Y-120530888D01*
X144635888Y-120628454D01*
X144635885Y-120628458D01*
X144559228Y-120743182D01*
X144559221Y-120743195D01*
X144506421Y-120870667D01*
X144506418Y-120870677D01*
X144479500Y-121006004D01*
X144479500Y-121006007D01*
X144479500Y-121943993D01*
X144479500Y-121943995D01*
X144479499Y-121943995D01*
X141775500Y-121943995D01*
X141775500Y-117893995D01*
X144479499Y-117893995D01*
X144506418Y-118029322D01*
X144506421Y-118029332D01*
X144559221Y-118156804D01*
X144559228Y-118156817D01*
X144635885Y-118271541D01*
X144635888Y-118271545D01*
X144733454Y-118369111D01*
X144733458Y-118369114D01*
X144848182Y-118445771D01*
X144848195Y-118445778D01*
X144975667Y-118498578D01*
X144975672Y-118498580D01*
X144975676Y-118498580D01*
X144975677Y-118498581D01*
X145111004Y-118525500D01*
X145111007Y-118525500D01*
X145248995Y-118525500D01*
X145340041Y-118507389D01*
X145384328Y-118498580D01*
X145511811Y-118445775D01*
X145626542Y-118369114D01*
X145724114Y-118271542D01*
X145800775Y-118156811D01*
X145809609Y-118135485D01*
X145853578Y-118029332D01*
X145853580Y-118029328D01*
X145880500Y-117893993D01*
X145880500Y-117738982D01*
X146184500Y-117738982D01*
X146184500Y-117851018D01*
X146213497Y-117959237D01*
X146269515Y-118056263D01*
X146348737Y-118135485D01*
X146445763Y-118191503D01*
X146553982Y-118220500D01*
X146553984Y-118220500D01*
X146666016Y-118220500D01*
X146666018Y-118220500D01*
X146774237Y-118191503D01*
X146871263Y-118135485D01*
X146950485Y-118056263D01*
X147006503Y-117959237D01*
X147035500Y-117851018D01*
X147035500Y-117738982D01*
X151964500Y-117738982D01*
X151964500Y-117851018D01*
X151993497Y-117959237D01*
X152049515Y-118056263D01*
X152128737Y-118135485D01*
X152225763Y-118191503D01*
X152333982Y-118220500D01*
X152333984Y-118220500D01*
X152446016Y-118220500D01*
X152446018Y-118220500D01*
X152554237Y-118191503D01*
X152651263Y-118135485D01*
X152730485Y-118056263D01*
X152786503Y-117959237D01*
X152803984Y-117893995D01*
X153119499Y-117893995D01*
X153146418Y-118029322D01*
X153146421Y-118029332D01*
X153199221Y-118156804D01*
X153199228Y-118156817D01*
X153275885Y-118271541D01*
X153275888Y-118271545D01*
X153373454Y-118369111D01*
X153373458Y-118369114D01*
X153488182Y-118445771D01*
X153488195Y-118445778D01*
X153615667Y-118498578D01*
X153615672Y-118498580D01*
X153615676Y-118498580D01*
X153615677Y-118498581D01*
X153751004Y-118525500D01*
X153751007Y-118525500D01*
X153888995Y-118525500D01*
X153980041Y-118507389D01*
X154024328Y-118498580D01*
X154151811Y-118445775D01*
X154266542Y-118369114D01*
X154364114Y-118271542D01*
X154440775Y-118156811D01*
X154449609Y-118135485D01*
X154493578Y-118029332D01*
X154493580Y-118029328D01*
X154520500Y-117893993D01*
X154520500Y-116656007D01*
X154520500Y-116656004D01*
X154493581Y-116520677D01*
X154493580Y-116520676D01*
X154493580Y-116520672D01*
X154493578Y-116520667D01*
X154440778Y-116393195D01*
X154440771Y-116393182D01*
X154364114Y-116278458D01*
X154364111Y-116278454D01*
X154266545Y-116180888D01*
X154266541Y-116180885D01*
X154151817Y-116104228D01*
X154151804Y-116104221D01*
X154024332Y-116051421D01*
X154024322Y-116051418D01*
X153888995Y-116024500D01*
X153888993Y-116024500D01*
X153751007Y-116024500D01*
X153751005Y-116024500D01*
X153615677Y-116051418D01*
X153615667Y-116051421D01*
X153488195Y-116104221D01*
X153488182Y-116104228D01*
X153373458Y-116180885D01*
X153373454Y-116180888D01*
X153275888Y-116278454D01*
X153275885Y-116278458D01*
X153199228Y-116393182D01*
X153199221Y-116393195D01*
X153146421Y-116520667D01*
X153146418Y-116520677D01*
X153119500Y-116656004D01*
X153119500Y-116656007D01*
X153119500Y-117893993D01*
X153119500Y-117893995D01*
X153119499Y-117893995D01*
X152803984Y-117893995D01*
X152815500Y-117851018D01*
X152815500Y-117738982D01*
X152786503Y-117630763D01*
X152730485Y-117533737D01*
X152651263Y-117454515D01*
X152554237Y-117398497D01*
X152446018Y-117369500D01*
X152333982Y-117369500D01*
X152225763Y-117398497D01*
X152225760Y-117398498D01*
X152128740Y-117454513D01*
X152128734Y-117454517D01*
X152049517Y-117533734D01*
X152049513Y-117533740D01*
X151993498Y-117630760D01*
X151993497Y-117630763D01*
X151964500Y-117738982D01*
X147035500Y-117738982D01*
X147006503Y-117630763D01*
X146950485Y-117533737D01*
X146871263Y-117454515D01*
X146774237Y-117398497D01*
X146666018Y-117369500D01*
X146553982Y-117369500D01*
X146445763Y-117398497D01*
X146445760Y-117398498D01*
X146348740Y-117454513D01*
X146348734Y-117454517D01*
X146269517Y-117533734D01*
X146269513Y-117533740D01*
X146213498Y-117630760D01*
X146213497Y-117630763D01*
X146184500Y-117738982D01*
X145880500Y-117738982D01*
X145880500Y-116656007D01*
X145880500Y-116656004D01*
X145853581Y-116520677D01*
X145853580Y-116520676D01*
X145853580Y-116520672D01*
X145853578Y-116520667D01*
X145800778Y-116393195D01*
X145800771Y-116393182D01*
X145724114Y-116278458D01*
X145724111Y-116278454D01*
X145626545Y-116180888D01*
X145626541Y-116180885D01*
X145511817Y-116104228D01*
X145511804Y-116104221D01*
X145384332Y-116051421D01*
X145384322Y-116051418D01*
X145248995Y-116024500D01*
X145248993Y-116024500D01*
X145111007Y-116024500D01*
X145111005Y-116024500D01*
X144975677Y-116051418D01*
X144975667Y-116051421D01*
X144848195Y-116104221D01*
X144848182Y-116104228D01*
X144733458Y-116180885D01*
X144733454Y-116180888D01*
X144635888Y-116278454D01*
X144635885Y-116278458D01*
X144559228Y-116393182D01*
X144559221Y-116393195D01*
X144506421Y-116520667D01*
X144506418Y-116520677D01*
X144479500Y-116656004D01*
X144479500Y-116656007D01*
X144479500Y-117893993D01*
X144479500Y-117893995D01*
X144479499Y-117893995D01*
X141775500Y-117893995D01*
X141775500Y-115384108D01*
X147749500Y-115384108D01*
X147749500Y-115515891D01*
X147783608Y-115643187D01*
X147816554Y-115700250D01*
X147849500Y-115757314D01*
X147942686Y-115850500D01*
X148056814Y-115916392D01*
X148184108Y-115950500D01*
X148184110Y-115950500D01*
X148315890Y-115950500D01*
X148315892Y-115950500D01*
X148443186Y-115916392D01*
X148557314Y-115850500D01*
X148650500Y-115757314D01*
X148716392Y-115643186D01*
X148750500Y-115515892D01*
X148750500Y-115384108D01*
X148743801Y-115359108D01*
X150749500Y-115359108D01*
X150749500Y-115490892D01*
X150756199Y-115515892D01*
X150783608Y-115618187D01*
X150798042Y-115643187D01*
X150849500Y-115732314D01*
X150942686Y-115825500D01*
X151056814Y-115891392D01*
X151184108Y-115925500D01*
X151184110Y-115925500D01*
X151315890Y-115925500D01*
X151315892Y-115925500D01*
X151443186Y-115891392D01*
X151557314Y-115825500D01*
X151650500Y-115732314D01*
X151716392Y-115618186D01*
X151750500Y-115490892D01*
X151750500Y-115359108D01*
X151716392Y-115231814D01*
X151650500Y-115117686D01*
X151557314Y-115024500D01*
X151486487Y-114983608D01*
X151443187Y-114958608D01*
X151379539Y-114941554D01*
X151315892Y-114924500D01*
X151184108Y-114924500D01*
X151056812Y-114958608D01*
X150942686Y-115024500D01*
X150942683Y-115024502D01*
X150849502Y-115117683D01*
X150849500Y-115117686D01*
X150783608Y-115231812D01*
X150776909Y-115256814D01*
X150749500Y-115359108D01*
X148743801Y-115359108D01*
X148716392Y-115256814D01*
X148650500Y-115142686D01*
X148557314Y-115049500D01*
X148500250Y-115016554D01*
X148443187Y-114983608D01*
X148379539Y-114966554D01*
X148315892Y-114949500D01*
X148184108Y-114949500D01*
X148056812Y-114983608D01*
X147942686Y-115049500D01*
X147942683Y-115049502D01*
X147849502Y-115142683D01*
X147849500Y-115142686D01*
X147783608Y-115256812D01*
X147749500Y-115384108D01*
X141775500Y-115384108D01*
X141775500Y-112254108D01*
X142074500Y-112254108D01*
X142074500Y-112385891D01*
X142108608Y-112513187D01*
X142141554Y-112570250D01*
X142174500Y-112627314D01*
X142267686Y-112720500D01*
X142381814Y-112786392D01*
X142509108Y-112820500D01*
X142509110Y-112820500D01*
X142640890Y-112820500D01*
X142640892Y-112820500D01*
X142768186Y-112786392D01*
X142882314Y-112720500D01*
X142975500Y-112627314D01*
X143041392Y-112513186D01*
X143075500Y-112385892D01*
X143075500Y-112254108D01*
X143041392Y-112126814D01*
X142975500Y-112012686D01*
X142882314Y-111919500D01*
X142825250Y-111886554D01*
X142768187Y-111853608D01*
X142704539Y-111836554D01*
X142640892Y-111819500D01*
X142509108Y-111819500D01*
X142381812Y-111853608D01*
X142267686Y-111919500D01*
X142267683Y-111919502D01*
X142174502Y-112012683D01*
X142174500Y-112012686D01*
X142108608Y-112126812D01*
X142074500Y-112254108D01*
X141775500Y-112254108D01*
X141775500Y-101905247D01*
X142124500Y-101905247D01*
X142124500Y-103644752D01*
X142136131Y-103703229D01*
X142136132Y-103703230D01*
X142180447Y-103769552D01*
X142246769Y-103813867D01*
X142246770Y-103813868D01*
X142305247Y-103825499D01*
X142305250Y-103825500D01*
X142305252Y-103825500D01*
X144044750Y-103825500D01*
X144044751Y-103825499D01*
X144059568Y-103822552D01*
X144103229Y-103813868D01*
X144103229Y-103813867D01*
X144103231Y-103813867D01*
X144169552Y-103769552D01*
X144213867Y-103703231D01*
X144213867Y-103703229D01*
X144213868Y-103703229D01*
X144225499Y-103644752D01*
X144225500Y-103644750D01*
X144225500Y-102671530D01*
X144664500Y-102671530D01*
X144664500Y-102878469D01*
X144704868Y-103081412D01*
X144704870Y-103081420D01*
X144784058Y-103272596D01*
X144899024Y-103444657D01*
X145045342Y-103590975D01*
X145045345Y-103590977D01*
X145217402Y-103705941D01*
X145408580Y-103785130D01*
X145553052Y-103813867D01*
X145611530Y-103825499D01*
X145611534Y-103825500D01*
X145611535Y-103825500D01*
X145818466Y-103825500D01*
X145818467Y-103825499D01*
X146021420Y-103785130D01*
X146212598Y-103705941D01*
X146384655Y-103590977D01*
X146530977Y-103444655D01*
X146645941Y-103272598D01*
X146725130Y-103081420D01*
X146765500Y-102878465D01*
X146765500Y-102671535D01*
X146765499Y-102671532D01*
X146765499Y-102671530D01*
X147204500Y-102671530D01*
X147204500Y-102878469D01*
X147244868Y-103081412D01*
X147244870Y-103081420D01*
X147324058Y-103272596D01*
X147439024Y-103444657D01*
X147585342Y-103590975D01*
X147585345Y-103590977D01*
X147757402Y-103705941D01*
X147948580Y-103785130D01*
X148093052Y-103813867D01*
X148151530Y-103825499D01*
X148151534Y-103825500D01*
X148151535Y-103825500D01*
X148358466Y-103825500D01*
X148358467Y-103825499D01*
X148561420Y-103785130D01*
X148752598Y-103705941D01*
X148924655Y-103590977D01*
X149070977Y-103444655D01*
X149185941Y-103272598D01*
X149265130Y-103081420D01*
X149305500Y-102878465D01*
X149305500Y-102671535D01*
X149305500Y-102671534D01*
X149305500Y-102671532D01*
X149296244Y-102625000D01*
X149654423Y-102625000D01*
X150317555Y-102625000D01*
X150295000Y-102709174D01*
X150295000Y-102840826D01*
X150317555Y-102925000D01*
X149654423Y-102925000D01*
X149673317Y-103044293D01*
X149729251Y-103216444D01*
X149729252Y-103216447D01*
X149811434Y-103377734D01*
X149917823Y-103524169D01*
X150045830Y-103652176D01*
X150192265Y-103758565D01*
X150353552Y-103840747D01*
X150353555Y-103840748D01*
X150525706Y-103896682D01*
X150645000Y-103915577D01*
X150645000Y-103252445D01*
X150729174Y-103275000D01*
X150860826Y-103275000D01*
X150945000Y-103252445D01*
X150945000Y-103915576D01*
X151064293Y-103896682D01*
X151236444Y-103840748D01*
X151236447Y-103840747D01*
X151397734Y-103758565D01*
X151544169Y-103652176D01*
X151672176Y-103524169D01*
X151778565Y-103377734D01*
X151860747Y-103216447D01*
X151860748Y-103216444D01*
X151916682Y-103044293D01*
X151935577Y-102925000D01*
X151272445Y-102925000D01*
X151295000Y-102840826D01*
X151295000Y-102709174D01*
X151284913Y-102671530D01*
X152284500Y-102671530D01*
X152284500Y-102878469D01*
X152324868Y-103081412D01*
X152324870Y-103081420D01*
X152404058Y-103272596D01*
X152519024Y-103444657D01*
X152665342Y-103590975D01*
X152665345Y-103590977D01*
X152837402Y-103705941D01*
X153028580Y-103785130D01*
X153173052Y-103813867D01*
X153231530Y-103825499D01*
X153231534Y-103825500D01*
X153231535Y-103825500D01*
X153438466Y-103825500D01*
X153438467Y-103825499D01*
X153641420Y-103785130D01*
X153832598Y-103705941D01*
X154004655Y-103590977D01*
X154150977Y-103444655D01*
X154265941Y-103272598D01*
X154345130Y-103081420D01*
X154385500Y-102878465D01*
X154385500Y-102671535D01*
X154385499Y-102671532D01*
X154385499Y-102671530D01*
X154824500Y-102671530D01*
X154824500Y-102878469D01*
X154864868Y-103081412D01*
X154864870Y-103081420D01*
X154944058Y-103272596D01*
X155059024Y-103444657D01*
X155205342Y-103590975D01*
X155205345Y-103590977D01*
X155377402Y-103705941D01*
X155568580Y-103785130D01*
X155713052Y-103813867D01*
X155771530Y-103825499D01*
X155771534Y-103825500D01*
X155771535Y-103825500D01*
X155978466Y-103825500D01*
X155978467Y-103825499D01*
X156181420Y-103785130D01*
X156372598Y-103705941D01*
X156544655Y-103590977D01*
X156690977Y-103444655D01*
X156805941Y-103272598D01*
X156885130Y-103081420D01*
X156925500Y-102878465D01*
X156925500Y-102671535D01*
X156925499Y-102671532D01*
X156925499Y-102671530D01*
X156907692Y-102582007D01*
X156885130Y-102468580D01*
X156805941Y-102277402D01*
X156690977Y-102105345D01*
X156690975Y-102105342D01*
X156544657Y-101959024D01*
X156376655Y-101846770D01*
X156372598Y-101844059D01*
X156181420Y-101764870D01*
X156181412Y-101764868D01*
X155978469Y-101724500D01*
X155978465Y-101724500D01*
X155771535Y-101724500D01*
X155771530Y-101724500D01*
X155568587Y-101764868D01*
X155568579Y-101764870D01*
X155377403Y-101844058D01*
X155205342Y-101959024D01*
X155059024Y-102105342D01*
X154944058Y-102277403D01*
X154864870Y-102468579D01*
X154864868Y-102468587D01*
X154824500Y-102671530D01*
X154385499Y-102671530D01*
X154367692Y-102582007D01*
X154345130Y-102468580D01*
X154265941Y-102277402D01*
X154150977Y-102105345D01*
X154150975Y-102105342D01*
X154004657Y-101959024D01*
X153836655Y-101846770D01*
X153832598Y-101844059D01*
X153641420Y-101764870D01*
X153641412Y-101764868D01*
X153438469Y-101724500D01*
X153438465Y-101724500D01*
X153231535Y-101724500D01*
X153231530Y-101724500D01*
X153028587Y-101764868D01*
X153028579Y-101764870D01*
X152837403Y-101844058D01*
X152665342Y-101959024D01*
X152519024Y-102105342D01*
X152404058Y-102277403D01*
X152324870Y-102468579D01*
X152324868Y-102468587D01*
X152284500Y-102671530D01*
X151284913Y-102671530D01*
X151272445Y-102625000D01*
X151935577Y-102625000D01*
X151935577Y-102624999D01*
X151916682Y-102505706D01*
X151860748Y-102333555D01*
X151860747Y-102333552D01*
X151778565Y-102172265D01*
X151672176Y-102025830D01*
X151544169Y-101897823D01*
X151397734Y-101791434D01*
X151236447Y-101709252D01*
X151236444Y-101709251D01*
X151064294Y-101653317D01*
X150945000Y-101634422D01*
X150945000Y-102297554D01*
X150860826Y-102275000D01*
X150729174Y-102275000D01*
X150645000Y-102297554D01*
X150645000Y-101634422D01*
X150644999Y-101634422D01*
X150525705Y-101653317D01*
X150353555Y-101709251D01*
X150353552Y-101709252D01*
X150192265Y-101791434D01*
X150045830Y-101897823D01*
X149917823Y-102025830D01*
X149811434Y-102172265D01*
X149729252Y-102333552D01*
X149729251Y-102333555D01*
X149673317Y-102505706D01*
X149654423Y-102625000D01*
X149296244Y-102625000D01*
X149265131Y-102468587D01*
X149265130Y-102468580D01*
X149185941Y-102277402D01*
X149070977Y-102105345D01*
X149070975Y-102105342D01*
X148924657Y-101959024D01*
X148756655Y-101846770D01*
X148752598Y-101844059D01*
X148561420Y-101764870D01*
X148561412Y-101764868D01*
X148358469Y-101724500D01*
X148358465Y-101724500D01*
X148151535Y-101724500D01*
X148151530Y-101724500D01*
X147948587Y-101764868D01*
X147948579Y-101764870D01*
X147757403Y-101844058D01*
X147585342Y-101959024D01*
X147439024Y-102105342D01*
X147324058Y-102277403D01*
X147244870Y-102468579D01*
X147244868Y-102468587D01*
X147204500Y-102671530D01*
X146765499Y-102671530D01*
X146747692Y-102582007D01*
X146725130Y-102468580D01*
X146645941Y-102277402D01*
X146530977Y-102105345D01*
X146530975Y-102105342D01*
X146384657Y-101959024D01*
X146216655Y-101846770D01*
X146212598Y-101844059D01*
X146021420Y-101764870D01*
X146021412Y-101764868D01*
X145818469Y-101724500D01*
X145818465Y-101724500D01*
X145611535Y-101724500D01*
X145611530Y-101724500D01*
X145408587Y-101764868D01*
X145408579Y-101764870D01*
X145217403Y-101844058D01*
X145045342Y-101959024D01*
X144899024Y-102105342D01*
X144784058Y-102277403D01*
X144704870Y-102468579D01*
X144704868Y-102468587D01*
X144664500Y-102671530D01*
X144225500Y-102671530D01*
X144225500Y-101905249D01*
X144225499Y-101905247D01*
X144213868Y-101846770D01*
X144213867Y-101846769D01*
X144169552Y-101780447D01*
X144103230Y-101736132D01*
X144103229Y-101736131D01*
X144044752Y-101724500D01*
X144044748Y-101724500D01*
X142305252Y-101724500D01*
X142305247Y-101724500D01*
X142246770Y-101736131D01*
X142246769Y-101736132D01*
X142180447Y-101780447D01*
X142136132Y-101846769D01*
X142136131Y-101846770D01*
X142124500Y-101905247D01*
X141775500Y-101905247D01*
X141775500Y-101374500D01*
X141795185Y-101307461D01*
X141847989Y-101261706D01*
X141899500Y-101250500D01*
X157150500Y-101250500D01*
X157217539Y-101270185D01*
G37*
%TD.AperFunction*%
%TD*%
M02*
