%TF.GenerationSoftware,KiCad,Pcbnew,10.0.3*%
%TF.CreationDate,2026-06-10T11:57:27+02:00*%
%TF.ProjectId,CH340-USBC,43483334-302d-4555-9342-432e6b696361,rev?*%
%TF.SameCoordinates,Original*%
%TF.FileFunction,Legend,Bot*%
%TF.FilePolarity,Positive*%
%FSLAX46Y46*%
G04 Gerber Fmt 4.6, Leading zero omitted, Abs format (unit mm)*
G04 Created by KiCad (PCBNEW 10.0.3) date 2026-06-10 11:57:27*
%MOMM*%
%LPD*%
G01*
G04 APERTURE LIST*
%ADD10C,0.100000*%
%ADD11C,0.150000*%
%ADD12C,0.120000*%
G04 APERTURE END LIST*
D10*
X149980000Y-109130000D02*
X149610000Y-109130000D01*
X149980000Y-109520000D02*
X149980000Y-108740000D01*
X150140000Y-109440000D02*
X150140000Y-108820000D01*
X150310000Y-109300000D02*
X150310000Y-108950000D01*
X150430000Y-109150000D02*
X150430000Y-109110000D01*
D11*
X147986666Y-109474819D02*
X148319999Y-108998628D01*
X148558094Y-109474819D02*
X148558094Y-108474819D01*
X148558094Y-108474819D02*
X148177142Y-108474819D01*
X148177142Y-108474819D02*
X148081904Y-108522438D01*
X148081904Y-108522438D02*
X148034285Y-108570057D01*
X148034285Y-108570057D02*
X147986666Y-108665295D01*
X147986666Y-108665295D02*
X147986666Y-108808152D01*
X147986666Y-108808152D02*
X148034285Y-108903390D01*
X148034285Y-108903390D02*
X148081904Y-108951009D01*
X148081904Y-108951009D02*
X148177142Y-108998628D01*
X148177142Y-108998628D02*
X148558094Y-108998628D01*
X147605713Y-108570057D02*
X147558094Y-108522438D01*
X147558094Y-108522438D02*
X147462856Y-108474819D01*
X147462856Y-108474819D02*
X147224761Y-108474819D01*
X147224761Y-108474819D02*
X147129523Y-108522438D01*
X147129523Y-108522438D02*
X147081904Y-108570057D01*
X147081904Y-108570057D02*
X147034285Y-108665295D01*
X147034285Y-108665295D02*
X147034285Y-108760533D01*
X147034285Y-108760533D02*
X147081904Y-108903390D01*
X147081904Y-108903390D02*
X147653332Y-109474819D01*
X147653332Y-109474819D02*
X147034285Y-109474819D01*
X143303333Y-104534819D02*
X143303333Y-105249104D01*
X143303333Y-105249104D02*
X143350952Y-105391961D01*
X143350952Y-105391961D02*
X143446190Y-105487200D01*
X143446190Y-105487200D02*
X143589047Y-105534819D01*
X143589047Y-105534819D02*
X143684285Y-105534819D01*
X142874761Y-104630057D02*
X142827142Y-104582438D01*
X142827142Y-104582438D02*
X142731904Y-104534819D01*
X142731904Y-104534819D02*
X142493809Y-104534819D01*
X142493809Y-104534819D02*
X142398571Y-104582438D01*
X142398571Y-104582438D02*
X142350952Y-104630057D01*
X142350952Y-104630057D02*
X142303333Y-104725295D01*
X142303333Y-104725295D02*
X142303333Y-104820533D01*
X142303333Y-104820533D02*
X142350952Y-104963390D01*
X142350952Y-104963390D02*
X142922380Y-105534819D01*
X142922380Y-105534819D02*
X142303333Y-105534819D01*
X145491666Y-109447080D02*
X145539285Y-109494700D01*
X145539285Y-109494700D02*
X145682142Y-109542319D01*
X145682142Y-109542319D02*
X145777380Y-109542319D01*
X145777380Y-109542319D02*
X145920237Y-109494700D01*
X145920237Y-109494700D02*
X146015475Y-109399461D01*
X146015475Y-109399461D02*
X146063094Y-109304223D01*
X146063094Y-109304223D02*
X146110713Y-109113747D01*
X146110713Y-109113747D02*
X146110713Y-108970890D01*
X146110713Y-108970890D02*
X146063094Y-108780414D01*
X146063094Y-108780414D02*
X146015475Y-108685176D01*
X146015475Y-108685176D02*
X145920237Y-108589938D01*
X145920237Y-108589938D02*
X145777380Y-108542319D01*
X145777380Y-108542319D02*
X145682142Y-108542319D01*
X145682142Y-108542319D02*
X145539285Y-108589938D01*
X145539285Y-108589938D02*
X145491666Y-108637557D01*
X144539285Y-109542319D02*
X145110713Y-109542319D01*
X144824999Y-109542319D02*
X144824999Y-108542319D01*
X144824999Y-108542319D02*
X144920237Y-108685176D01*
X144920237Y-108685176D02*
X145015475Y-108780414D01*
X145015475Y-108780414D02*
X145110713Y-108828033D01*
X151386666Y-109504819D02*
X151719999Y-109028628D01*
X151958094Y-109504819D02*
X151958094Y-108504819D01*
X151958094Y-108504819D02*
X151577142Y-108504819D01*
X151577142Y-108504819D02*
X151481904Y-108552438D01*
X151481904Y-108552438D02*
X151434285Y-108600057D01*
X151434285Y-108600057D02*
X151386666Y-108695295D01*
X151386666Y-108695295D02*
X151386666Y-108838152D01*
X151386666Y-108838152D02*
X151434285Y-108933390D01*
X151434285Y-108933390D02*
X151481904Y-108981009D01*
X151481904Y-108981009D02*
X151577142Y-109028628D01*
X151577142Y-109028628D02*
X151958094Y-109028628D01*
X150434285Y-109504819D02*
X151005713Y-109504819D01*
X150719999Y-109504819D02*
X150719999Y-108504819D01*
X150719999Y-108504819D02*
X150815237Y-108647676D01*
X150815237Y-108647676D02*
X150910475Y-108742914D01*
X150910475Y-108742914D02*
X151005713Y-108790533D01*
%TO.C,R2*%
D12*
X147340000Y-112977064D02*
X147340000Y-111522936D01*
X149160000Y-112977064D02*
X149160000Y-111522936D01*
%TO.C,J2*%
X141845000Y-101445000D02*
X143175000Y-101445000D01*
X141845000Y-102775000D02*
X141845000Y-101445000D01*
X144445000Y-104105000D02*
X144445000Y-101445000D01*
X157205000Y-101445000D02*
X144445000Y-101445000D01*
X157205000Y-104105000D02*
X144445000Y-104105000D01*
X157205000Y-104105000D02*
X157205000Y-101445000D01*
%TO.C,C1*%
X144415000Y-111501248D02*
X144415000Y-112923752D01*
X146235000Y-111501248D02*
X146235000Y-112923752D01*
%TO.C,R1*%
X150315000Y-112977064D02*
X150315000Y-111522936D01*
X152135000Y-112977064D02*
X152135000Y-111522936D01*
%TD*%
M02*
