M48
; DRILL file KiCad 10.0.3 date 2026-06-10T11:57:23
; FORMAT={-:-/ absolute / metric / decimal}
; #@! TF.CreationDate,2026-06-10T11:57:23+02:00
; #@! TF.GenerationSoftware,Kicad,Pcbnew,10.0.3
; #@! TF.FileFunction,Plated,1,4,PTH
FMAT,2
METRIC
; #@! TA.AperFunction,Plated,PTH,ViaDrill
T1C0.300
; #@! TA.AperFunction,Plated,PTH,ComponentDrill
T2C0.600
; #@! TA.AperFunction,Plated,PTH,ComponentDrill
T3C1.000
%
G90
G05
T1
X142.575Y-112.32
X142.9Y-117.22
X142.925Y-119.5
X142.95Y-123.375
X145.2Y-115.3
X148.25Y-115.45
X151.25Y-115.425
X153.8Y-115.275
X154.99Y-106.37
X156.03Y-117.24
X156.05Y-119.5
X156.05Y-123.35
T3
X143.175Y-102.775
X145.715Y-102.775
X148.255Y-102.775
X150.795Y-102.775
X153.335Y-102.775
X155.875Y-102.775
T2
G00X145.18Y-116.725
M15
G01X145.18Y-117.825
M16
G05
G00X145.18Y-121.075
M15
G01X145.18Y-121.875
M16
G05
G00X153.82Y-116.725
M15
G01X153.82Y-117.825
M16
G05
G00X153.82Y-121.075
M15
G01X153.82Y-121.875
M16
G05
M30
