%TF.GenerationSoftware,KiCad,Pcbnew,8.0.5*%
%TF.CreationDate,2025-10-26T06:15:14+01:00*%
%TF.ProjectId,FRTC8563S,46525443-3835-4363-9353-2e6b69636164,rev?*%
%TF.SameCoordinates,Original*%
%TF.FileFunction,Drillmap*%
%TF.FilePolarity,Positive*%
%FSLAX45Y45*%
G04 Gerber Fmt 4.5, Leading zero omitted, Abs format (unit mm)*
G04 Created by KiCad (PCBNEW 8.0.5) date 2025-10-26 06:15:14*
%MOMM*%
%LPD*%
G01*
G04 APERTURE LIST*
%ADD10C,0.050000*%
%ADD11C,0.200000*%
G04 APERTURE END LIST*
D10*
X14000000Y-4350000D02*
X15650000Y-4350000D01*
X15650000Y-6000000D01*
X14000000Y-6000000D01*
X14000000Y-4350000D01*
D11*
X14258277Y-6313984D02*
X14258277Y-6113984D01*
X14258277Y-6113984D02*
X14305896Y-6113984D01*
X14305896Y-6113984D02*
X14334467Y-6123508D01*
X14334467Y-6123508D02*
X14353515Y-6142555D01*
X14353515Y-6142555D02*
X14363039Y-6161603D01*
X14363039Y-6161603D02*
X14372562Y-6199698D01*
X14372562Y-6199698D02*
X14372562Y-6228269D01*
X14372562Y-6228269D02*
X14363039Y-6266365D01*
X14363039Y-6266365D02*
X14353515Y-6285412D01*
X14353515Y-6285412D02*
X14334467Y-6304460D01*
X14334467Y-6304460D02*
X14305896Y-6313984D01*
X14305896Y-6313984D02*
X14258277Y-6313984D01*
X14458277Y-6313984D02*
X14458277Y-6180650D01*
X14458277Y-6218746D02*
X14467801Y-6199698D01*
X14467801Y-6199698D02*
X14477324Y-6190174D01*
X14477324Y-6190174D02*
X14496372Y-6180650D01*
X14496372Y-6180650D02*
X14515420Y-6180650D01*
X14582086Y-6313984D02*
X14582086Y-6180650D01*
X14582086Y-6113984D02*
X14572562Y-6123508D01*
X14572562Y-6123508D02*
X14582086Y-6133031D01*
X14582086Y-6133031D02*
X14591610Y-6123508D01*
X14591610Y-6123508D02*
X14582086Y-6113984D01*
X14582086Y-6113984D02*
X14582086Y-6133031D01*
X14705896Y-6313984D02*
X14686848Y-6304460D01*
X14686848Y-6304460D02*
X14677324Y-6285412D01*
X14677324Y-6285412D02*
X14677324Y-6113984D01*
X14810658Y-6313984D02*
X14791610Y-6304460D01*
X14791610Y-6304460D02*
X14782086Y-6285412D01*
X14782086Y-6285412D02*
X14782086Y-6113984D01*
X15039229Y-6313984D02*
X15039229Y-6113984D01*
X15039229Y-6113984D02*
X15105896Y-6256841D01*
X15105896Y-6256841D02*
X15172562Y-6113984D01*
X15172562Y-6113984D02*
X15172562Y-6313984D01*
X15353515Y-6313984D02*
X15353515Y-6209222D01*
X15353515Y-6209222D02*
X15343991Y-6190174D01*
X15343991Y-6190174D02*
X15324943Y-6180650D01*
X15324943Y-6180650D02*
X15286848Y-6180650D01*
X15286848Y-6180650D02*
X15267801Y-6190174D01*
X15353515Y-6304460D02*
X15334467Y-6313984D01*
X15334467Y-6313984D02*
X15286848Y-6313984D01*
X15286848Y-6313984D02*
X15267801Y-6304460D01*
X15267801Y-6304460D02*
X15258277Y-6285412D01*
X15258277Y-6285412D02*
X15258277Y-6266365D01*
X15258277Y-6266365D02*
X15267801Y-6247317D01*
X15267801Y-6247317D02*
X15286848Y-6237793D01*
X15286848Y-6237793D02*
X15334467Y-6237793D01*
X15334467Y-6237793D02*
X15353515Y-6228269D01*
X15448753Y-6180650D02*
X15448753Y-6380650D01*
X15448753Y-6190174D02*
X15467801Y-6180650D01*
X15467801Y-6180650D02*
X15505896Y-6180650D01*
X15505896Y-6180650D02*
X15524943Y-6190174D01*
X15524943Y-6190174D02*
X15534467Y-6199698D01*
X15534467Y-6199698D02*
X15543991Y-6218746D01*
X15543991Y-6218746D02*
X15543991Y-6275888D01*
X15543991Y-6275888D02*
X15534467Y-6294936D01*
X15534467Y-6294936D02*
X15524943Y-6304460D01*
X15524943Y-6304460D02*
X15505896Y-6313984D01*
X15505896Y-6313984D02*
X15467801Y-6313984D01*
X15467801Y-6313984D02*
X15448753Y-6304460D01*
X15629705Y-6294936D02*
X15639229Y-6304460D01*
X15639229Y-6304460D02*
X15629705Y-6313984D01*
X15629705Y-6313984D02*
X15620182Y-6304460D01*
X15620182Y-6304460D02*
X15629705Y-6294936D01*
X15629705Y-6294936D02*
X15629705Y-6313984D01*
X15629705Y-6190174D02*
X15639229Y-6199698D01*
X15639229Y-6199698D02*
X15629705Y-6209222D01*
X15629705Y-6209222D02*
X15620182Y-6199698D01*
X15620182Y-6199698D02*
X15629705Y-6190174D01*
X15629705Y-6190174D02*
X15629705Y-6209222D01*
M02*
