%TF.GenerationSoftware,KiCad,Pcbnew,8.0.5*%
%TF.CreationDate,2025-10-26T06:15:10+01:00*%
%TF.ProjectId,FRTC8563S,46525443-3835-4363-9353-2e6b69636164,rev?*%
%TF.SameCoordinates,Original*%
%TF.FileFunction,Legend,Bot*%
%TF.FilePolarity,Positive*%
%FSLAX46Y46*%
G04 Gerber Fmt 4.6, Leading zero omitted, Abs format (unit mm)*
G04 Created by KiCad (PCBNEW 8.0.5) date 2025-10-26 06:15:10*
%MOMM*%
%LPD*%
G01*
G04 APERTURE LIST*
%ADD10C,0.150000*%
%ADD11C,0.120000*%
G04 APERTURE END LIST*
D10*
X155204819Y-54916666D02*
X155919104Y-54916666D01*
X155919104Y-54916666D02*
X156061961Y-54869047D01*
X156061961Y-54869047D02*
X156157200Y-54773809D01*
X156157200Y-54773809D02*
X156204819Y-54630952D01*
X156204819Y-54630952D02*
X156204819Y-54535714D01*
X155300057Y-55345238D02*
X155252438Y-55392857D01*
X155252438Y-55392857D02*
X155204819Y-55488095D01*
X155204819Y-55488095D02*
X155204819Y-55726190D01*
X155204819Y-55726190D02*
X155252438Y-55821428D01*
X155252438Y-55821428D02*
X155300057Y-55869047D01*
X155300057Y-55869047D02*
X155395295Y-55916666D01*
X155395295Y-55916666D02*
X155490533Y-55916666D01*
X155490533Y-55916666D02*
X155633390Y-55869047D01*
X155633390Y-55869047D02*
X156204819Y-55297619D01*
X156204819Y-55297619D02*
X156204819Y-55916666D01*
D11*
%TO.C,J2*%
X140470000Y-56670000D02*
X141800000Y-56670000D01*
X140470000Y-58000000D02*
X140470000Y-56670000D01*
X143070000Y-59330000D02*
X143070000Y-56670000D01*
X155830000Y-56670000D02*
X143070000Y-56670000D01*
X155830000Y-59330000D02*
X143070000Y-59330000D01*
X155830000Y-59330000D02*
X155830000Y-56670000D01*
%TD*%
M02*
