%TF.GenerationSoftware,KiCad,Pcbnew,8.0.5*%
%TF.CreationDate,2025-10-26T06:15:10+01:00*%
%TF.ProjectId,FRTC8563S,46525443-3835-4363-9353-2e6b69636164,rev?*%
%TF.SameCoordinates,Original*%
%TF.FileFunction,Copper,L1,Top*%
%TF.FilePolarity,Positive*%
%FSLAX46Y46*%
G04 Gerber Fmt 4.6, Leading zero omitted, Abs format (unit mm)*
G04 Created by KiCad (PCBNEW 8.0.5) date 2025-10-26 06:15:10*
%MOMM*%
%LPD*%
G01*
G04 APERTURE LIST*
G04 Aperture macros list*
%AMRoundRect*
0 Rectangle with rounded corners*
0 $1 Rounding radius*
0 $2 $3 $4 $5 $6 $7 $8 $9 X,Y pos of 4 corners*
0 Add a 4 corners polygon primitive as box body*
4,1,4,$2,$3,$4,$5,$6,$7,$8,$9,$2,$3,0*
0 Add four circle primitives for the rounded corners*
1,1,$1+$1,$2,$3*
1,1,$1+$1,$4,$5*
1,1,$1+$1,$6,$7*
1,1,$1+$1,$8,$9*
0 Add four rect primitives between the rounded corners*
20,1,$1+$1,$2,$3,$4,$5,0*
20,1,$1+$1,$4,$5,$6,$7,0*
20,1,$1+$1,$6,$7,$8,$9,0*
20,1,$1+$1,$8,$9,$2,$3,0*%
G04 Aperture macros list end*
%TA.AperFunction,ComponentPad*%
%ADD10C,1.000000*%
%TD*%
%TA.AperFunction,SMDPad,CuDef*%
%ADD11RoundRect,0.150000X-0.150000X0.675000X-0.150000X-0.675000X0.150000X-0.675000X0.150000X0.675000X0*%
%TD*%
%TA.AperFunction,SMDPad,CuDef*%
%ADD12RoundRect,0.250000X0.412500X0.650000X-0.412500X0.650000X-0.412500X-0.650000X0.412500X-0.650000X0*%
%TD*%
%TA.AperFunction,ComponentPad*%
%ADD13R,1.700000X1.700000*%
%TD*%
%TA.AperFunction,ComponentPad*%
%ADD14O,1.700000X1.700000*%
%TD*%
%TA.AperFunction,Conductor*%
%ADD15C,0.400000*%
%TD*%
G04 APERTURE END LIST*
D10*
%TO.P,Y1,1,1*%
%TO.N,Xin*%
X155000000Y-46050000D03*
%TO.P,Y1,2,2*%
%TO.N,Xout*%
X155000000Y-47950000D03*
%TD*%
D11*
%TO.P,U1,1,X1*%
%TO.N,Xin*%
X150905000Y-50125000D03*
%TO.P,U1,2,X2*%
%TO.N,Xout*%
X149635000Y-50125000D03*
%TO.P,U1,3,/INT*%
%TO.N,{slash}INT*%
X148365000Y-50125000D03*
%TO.P,U1,4,GND*%
%TO.N,GND*%
X147095000Y-50125000D03*
%TO.P,U1,5,SDA*%
%TO.N,SDA*%
X147095000Y-55375000D03*
%TO.P,U1,6,SCL*%
%TO.N,SCL*%
X148365000Y-55375000D03*
%TO.P,U1,7,SQW*%
%TO.N,SQW*%
X149635000Y-55375000D03*
%TO.P,U1,8,VCC*%
%TO.N,+5V*%
X150905000Y-55375000D03*
%TD*%
D12*
%TO.P,C1,1*%
%TO.N,+5V*%
X144625000Y-47000000D03*
%TO.P,C1,2*%
%TO.N,GND*%
X141500000Y-47000000D03*
%TD*%
%TO.P,C2,1*%
%TO.N,+5V*%
X144625000Y-52750000D03*
%TO.P,C2,2*%
%TO.N,GND*%
X141500000Y-52750000D03*
%TD*%
D13*
%TO.P,J2,1,Pin_1*%
%TO.N,GND*%
X141800000Y-58000000D03*
D14*
%TO.P,J2,2,Pin_2*%
%TO.N,+5V*%
X144340000Y-58000000D03*
%TO.P,J2,3,Pin_3*%
%TO.N,SDA*%
X146880000Y-58000000D03*
%TO.P,J2,4,Pin_4*%
%TO.N,SCL*%
X149420000Y-58000000D03*
%TO.P,J2,5,Pin_5*%
%TO.N,SQW*%
X151960000Y-58000000D03*
%TO.P,J2,6,Pin_6*%
%TO.N,{slash}INT*%
X154500000Y-58000000D03*
%TD*%
D15*
%TO.N,{slash}INT*%
X154500000Y-52750000D02*
X154500000Y-58000000D01*
X153750000Y-52000000D02*
X154500000Y-52750000D01*
X148365000Y-50125000D02*
X148365000Y-50949999D01*
X148365000Y-50949999D02*
X149415001Y-52000000D01*
X149415001Y-52000000D02*
X153750000Y-52000000D01*
%TO.N,+5V*%
X144625000Y-52750000D02*
X149104999Y-52750000D01*
X144625000Y-52750000D02*
X144625000Y-47000000D01*
X144625000Y-52750000D02*
X144625000Y-57715000D01*
X150905000Y-54550001D02*
X150905000Y-55375000D01*
X149104999Y-52750000D02*
X150905000Y-54550001D01*
X144625000Y-57715000D02*
X144340000Y-58000000D01*
%TO.N,SCL*%
X148365000Y-55375000D02*
X148365000Y-56945000D01*
X148365000Y-56945000D02*
X149420000Y-58000000D01*
%TO.N,SDA*%
X147095000Y-55375000D02*
X147095000Y-57785000D01*
X147095000Y-57785000D02*
X146880000Y-58000000D01*
%TO.N,GND*%
X141500000Y-52750000D02*
X141500000Y-57700000D01*
X141500000Y-57700000D02*
X141800000Y-58000000D01*
%TO.N,SQW*%
X149635000Y-55375000D02*
X149635000Y-56447233D01*
X151187767Y-58000000D02*
X151960000Y-58000000D01*
X149635000Y-56447233D02*
X151187767Y-58000000D01*
%TO.N,Xin*%
X150905000Y-50125000D02*
X150905000Y-47095000D01*
X151950000Y-46050000D02*
X155000000Y-46050000D01*
X150905000Y-47095000D02*
X151950000Y-46050000D01*
%TO.N,Xout*%
X151550000Y-51400000D02*
X155000000Y-47950000D01*
X149900000Y-51400000D02*
X151550000Y-51400000D01*
X149635000Y-50125000D02*
X149635000Y-51135000D01*
X149635000Y-51135000D02*
X149900000Y-51400000D01*
%TD*%
%TA.AperFunction,Conductor*%
%TO.N,GND*%
G36*
X155942539Y-44020185D02*
G01*
X155988294Y-44072989D01*
X155999500Y-44124500D01*
X155999500Y-45344240D01*
X155979815Y-45411279D01*
X155927011Y-45457034D01*
X155857853Y-45466978D01*
X155794297Y-45437953D01*
X155779647Y-45422905D01*
X155710883Y-45339116D01*
X155558539Y-45214090D01*
X155558532Y-45214086D01*
X155384733Y-45121188D01*
X155384727Y-45121186D01*
X155196132Y-45063976D01*
X155196129Y-45063975D01*
X155000000Y-45044659D01*
X154803870Y-45063975D01*
X154615266Y-45121188D01*
X154441467Y-45214086D01*
X154441460Y-45214090D01*
X154341796Y-45295883D01*
X154310761Y-45321353D01*
X154246454Y-45348666D01*
X154232098Y-45349500D01*
X151881003Y-45349500D01*
X151772590Y-45371065D01*
X151772589Y-45371065D01*
X151745671Y-45376420D01*
X151618190Y-45429224D01*
X151503454Y-45505887D01*
X150360888Y-46648453D01*
X150360882Y-46648461D01*
X150285769Y-46760877D01*
X150285768Y-46760880D01*
X150284226Y-46763186D01*
X150284225Y-46763189D01*
X150231420Y-46890671D01*
X150231418Y-46890677D01*
X150204500Y-47026004D01*
X150204500Y-48729326D01*
X150184815Y-48796365D01*
X150132011Y-48842120D01*
X150062853Y-48852064D01*
X150045905Y-48848402D01*
X149887573Y-48802402D01*
X149887567Y-48802401D01*
X149850701Y-48799500D01*
X149850694Y-48799500D01*
X149419306Y-48799500D01*
X149419298Y-48799500D01*
X149382432Y-48802401D01*
X149382426Y-48802402D01*
X149224606Y-48848254D01*
X149224603Y-48848255D01*
X149083137Y-48931917D01*
X149076969Y-48936702D01*
X149075072Y-48934256D01*
X149026358Y-48960857D01*
X148956666Y-48955873D01*
X148924296Y-48935069D01*
X148923031Y-48936702D01*
X148916862Y-48931917D01*
X148781837Y-48852064D01*
X148775398Y-48848256D01*
X148775397Y-48848255D01*
X148775396Y-48848255D01*
X148775393Y-48848254D01*
X148617573Y-48802402D01*
X148617567Y-48802401D01*
X148580701Y-48799500D01*
X148580694Y-48799500D01*
X148149306Y-48799500D01*
X148149298Y-48799500D01*
X148112432Y-48802401D01*
X148112426Y-48802402D01*
X147954606Y-48848254D01*
X147954603Y-48848255D01*
X147813140Y-48931915D01*
X147806974Y-48936699D01*
X147805174Y-48934379D01*
X147755913Y-48961230D01*
X147686225Y-48956193D01*
X147653992Y-48935461D01*
X147652722Y-48937100D01*
X147646552Y-48932314D01*
X147505196Y-48848717D01*
X147505193Y-48848716D01*
X147347494Y-48802900D01*
X147347497Y-48802900D01*
X147345000Y-48802703D01*
X147345000Y-51447295D01*
X147345001Y-51447295D01*
X147347486Y-51447100D01*
X147505198Y-51401281D01*
X147632722Y-51325864D01*
X147700446Y-51308681D01*
X147766708Y-51330841D01*
X147798946Y-51363706D01*
X147820887Y-51396544D01*
X147820888Y-51396545D01*
X148262163Y-51837819D01*
X148295648Y-51899142D01*
X148290664Y-51968833D01*
X148248793Y-52024767D01*
X148183328Y-52049184D01*
X148174482Y-52049500D01*
X145899663Y-52049500D01*
X145832624Y-52029815D01*
X145786869Y-51977011D01*
X145778411Y-51951459D01*
X145777500Y-51947207D01*
X145761573Y-51899142D01*
X145722314Y-51780666D01*
X145630212Y-51631344D01*
X145506156Y-51507288D01*
X145384402Y-51432190D01*
X145337679Y-51380243D01*
X145325500Y-51326652D01*
X145325500Y-50865649D01*
X146295000Y-50865649D01*
X146297899Y-50902489D01*
X146297900Y-50902495D01*
X146343716Y-51060193D01*
X146343717Y-51060196D01*
X146427314Y-51201552D01*
X146427321Y-51201561D01*
X146543438Y-51317678D01*
X146543447Y-51317685D01*
X146684801Y-51401281D01*
X146842514Y-51447100D01*
X146842511Y-51447100D01*
X146844998Y-51447295D01*
X146845000Y-51447295D01*
X146845000Y-50375000D01*
X146295000Y-50375000D01*
X146295000Y-50865649D01*
X145325500Y-50865649D01*
X145325500Y-49384350D01*
X146295000Y-49384350D01*
X146295000Y-49875000D01*
X146845000Y-49875000D01*
X146845000Y-48802703D01*
X146842503Y-48802900D01*
X146684806Y-48848716D01*
X146684803Y-48848717D01*
X146543447Y-48932314D01*
X146543438Y-48932321D01*
X146427321Y-49048438D01*
X146427314Y-49048447D01*
X146343717Y-49189803D01*
X146343716Y-49189806D01*
X146297900Y-49347504D01*
X146297899Y-49347510D01*
X146295000Y-49384350D01*
X145325500Y-49384350D01*
X145325500Y-48423347D01*
X145345185Y-48356308D01*
X145384401Y-48317810D01*
X145506156Y-48242712D01*
X145630212Y-48118656D01*
X145722314Y-47969334D01*
X145777499Y-47802797D01*
X145788000Y-47700009D01*
X145787999Y-46299992D01*
X145777499Y-46197203D01*
X145722314Y-46030666D01*
X145630212Y-45881344D01*
X145506156Y-45757288D01*
X145356834Y-45665186D01*
X145190297Y-45610001D01*
X145190295Y-45610000D01*
X145087510Y-45599500D01*
X144162498Y-45599500D01*
X144162480Y-45599501D01*
X144059703Y-45610000D01*
X144059700Y-45610001D01*
X143893168Y-45665185D01*
X143893163Y-45665187D01*
X143743842Y-45757289D01*
X143619789Y-45881342D01*
X143527687Y-46030663D01*
X143527685Y-46030668D01*
X143527615Y-46030880D01*
X143472501Y-46197203D01*
X143472501Y-46197204D01*
X143472500Y-46197204D01*
X143462000Y-46299983D01*
X143462000Y-47700001D01*
X143462001Y-47700018D01*
X143472500Y-47802796D01*
X143472501Y-47802799D01*
X143527685Y-47969331D01*
X143527687Y-47969336D01*
X143552340Y-48009305D01*
X143619788Y-48118656D01*
X143743844Y-48242712D01*
X143865597Y-48317809D01*
X143912321Y-48369755D01*
X143924500Y-48423347D01*
X143924500Y-51326652D01*
X143904815Y-51393691D01*
X143865598Y-51432189D01*
X143788335Y-51479845D01*
X143743842Y-51507289D01*
X143619789Y-51631342D01*
X143527687Y-51780663D01*
X143527685Y-51780668D01*
X143527615Y-51780880D01*
X143472501Y-51947203D01*
X143472501Y-51947204D01*
X143472500Y-51947204D01*
X143462000Y-52049983D01*
X143462000Y-53450001D01*
X143462001Y-53450018D01*
X143472500Y-53552796D01*
X143472501Y-53552799D01*
X143527615Y-53719119D01*
X143527686Y-53719334D01*
X143619788Y-53868656D01*
X143743844Y-53992712D01*
X143865597Y-54067809D01*
X143912321Y-54119755D01*
X143924500Y-54173347D01*
X143924500Y-56624641D01*
X143904815Y-56691680D01*
X143852905Y-56737023D01*
X143662171Y-56825964D01*
X143662169Y-56825965D01*
X143468600Y-56961503D01*
X143346284Y-57083819D01*
X143284961Y-57117303D01*
X143215269Y-57112319D01*
X143159336Y-57070447D01*
X143142421Y-57039470D01*
X143093354Y-56907913D01*
X143093350Y-56907906D01*
X143007190Y-56792812D01*
X143007187Y-56792809D01*
X142892093Y-56706649D01*
X142892086Y-56706645D01*
X142757379Y-56656403D01*
X142757372Y-56656401D01*
X142697844Y-56650000D01*
X142050000Y-56650000D01*
X142050000Y-57566988D01*
X141992993Y-57534075D01*
X141865826Y-57500000D01*
X141734174Y-57500000D01*
X141607007Y-57534075D01*
X141550000Y-57566988D01*
X141550000Y-56650000D01*
X140902155Y-56650000D01*
X140842627Y-56656401D01*
X140842620Y-56656403D01*
X140707913Y-56706645D01*
X140707911Y-56706646D01*
X140698810Y-56713460D01*
X140633345Y-56737876D01*
X140565072Y-56723024D01*
X140515667Y-56673618D01*
X140500500Y-56614192D01*
X140500500Y-54141303D01*
X140520185Y-54074264D01*
X140572989Y-54028509D01*
X140642147Y-54018565D01*
X140689598Y-54035765D01*
X140768373Y-54084355D01*
X140768380Y-54084358D01*
X140934802Y-54139505D01*
X140934809Y-54139506D01*
X141037519Y-54149999D01*
X141249999Y-54149999D01*
X141750000Y-54149999D01*
X141962472Y-54149999D01*
X141962486Y-54149998D01*
X142065197Y-54139505D01*
X142231619Y-54084358D01*
X142231624Y-54084356D01*
X142380845Y-53992315D01*
X142504815Y-53868345D01*
X142596856Y-53719124D01*
X142596858Y-53719119D01*
X142652005Y-53552697D01*
X142652006Y-53552690D01*
X142662499Y-53449986D01*
X142662500Y-53449973D01*
X142662500Y-53000000D01*
X141750000Y-53000000D01*
X141750000Y-54149999D01*
X141249999Y-54149999D01*
X141250000Y-54149998D01*
X141250000Y-52500000D01*
X141750000Y-52500000D01*
X142662499Y-52500000D01*
X142662499Y-52050028D01*
X142662498Y-52050013D01*
X142652005Y-51947302D01*
X142596858Y-51780880D01*
X142596856Y-51780875D01*
X142504815Y-51631654D01*
X142380845Y-51507684D01*
X142231624Y-51415643D01*
X142231619Y-51415641D01*
X142065197Y-51360494D01*
X142065190Y-51360493D01*
X141962486Y-51350000D01*
X141750000Y-51350000D01*
X141750000Y-52500000D01*
X141250000Y-52500000D01*
X141250000Y-51350000D01*
X141037529Y-51350000D01*
X141037512Y-51350001D01*
X140934802Y-51360494D01*
X140768380Y-51415641D01*
X140768375Y-51415643D01*
X140689597Y-51464235D01*
X140622204Y-51482675D01*
X140555541Y-51461752D01*
X140510771Y-51408110D01*
X140500500Y-51358696D01*
X140500500Y-48391303D01*
X140520185Y-48324264D01*
X140572989Y-48278509D01*
X140642147Y-48268565D01*
X140689598Y-48285765D01*
X140768373Y-48334355D01*
X140768380Y-48334358D01*
X140934802Y-48389505D01*
X140934809Y-48389506D01*
X141037519Y-48399999D01*
X141249999Y-48399999D01*
X141750000Y-48399999D01*
X141962472Y-48399999D01*
X141962486Y-48399998D01*
X142065197Y-48389505D01*
X142231619Y-48334358D01*
X142231624Y-48334356D01*
X142380845Y-48242315D01*
X142504815Y-48118345D01*
X142596856Y-47969124D01*
X142596858Y-47969119D01*
X142652005Y-47802697D01*
X142652006Y-47802690D01*
X142662499Y-47699986D01*
X142662500Y-47699973D01*
X142662500Y-47250000D01*
X141750000Y-47250000D01*
X141750000Y-48399999D01*
X141249999Y-48399999D01*
X141250000Y-48399998D01*
X141250000Y-46750000D01*
X141750000Y-46750000D01*
X142662499Y-46750000D01*
X142662499Y-46300028D01*
X142662498Y-46300013D01*
X142652005Y-46197302D01*
X142596858Y-46030880D01*
X142596856Y-46030875D01*
X142504815Y-45881654D01*
X142380845Y-45757684D01*
X142231624Y-45665643D01*
X142231619Y-45665641D01*
X142065197Y-45610494D01*
X142065190Y-45610493D01*
X141962486Y-45600000D01*
X141750000Y-45600000D01*
X141750000Y-46750000D01*
X141250000Y-46750000D01*
X141250000Y-45600000D01*
X141037529Y-45600000D01*
X141037512Y-45600001D01*
X140934802Y-45610494D01*
X140768380Y-45665641D01*
X140768375Y-45665643D01*
X140689597Y-45714235D01*
X140622204Y-45732675D01*
X140555541Y-45711752D01*
X140510771Y-45658110D01*
X140500500Y-45608696D01*
X140500500Y-44124500D01*
X140520185Y-44057461D01*
X140572989Y-44011706D01*
X140624500Y-44000500D01*
X155875500Y-44000500D01*
X155942539Y-44020185D01*
G37*
%TD.AperFunction*%
%TD*%
%TA.AperFunction,NonConductor*%
G36*
X155967005Y-46672076D02*
G01*
X155997721Y-46734832D01*
X155999500Y-46755759D01*
X155999500Y-47244240D01*
X155979815Y-47311279D01*
X155927011Y-47357034D01*
X155857853Y-47366978D01*
X155794297Y-47337953D01*
X155779647Y-47322905D01*
X155710883Y-47239116D01*
X155558539Y-47114091D01*
X155558538Y-47114090D01*
X155549687Y-47109359D01*
X155499843Y-47060398D01*
X155484381Y-46992261D01*
X155508211Y-46926581D01*
X155549686Y-46890641D01*
X155558538Y-46885910D01*
X155710883Y-46760883D01*
X155779646Y-46677094D01*
X155837392Y-46637760D01*
X155907237Y-46635889D01*
X155967005Y-46672076D01*
G37*
%TD.AperFunction*%
%TA.AperFunction,NonConductor*%
G36*
X154299137Y-46770185D02*
G01*
X154310757Y-46778642D01*
X154320720Y-46786819D01*
X154441460Y-46885909D01*
X154441464Y-46885911D01*
X154450314Y-46890642D01*
X154500158Y-46939605D01*
X154515618Y-47007743D01*
X154491786Y-47073422D01*
X154450314Y-47109358D01*
X154441464Y-47114088D01*
X154441460Y-47114090D01*
X154289116Y-47239116D01*
X154164090Y-47391460D01*
X154164086Y-47391467D01*
X154071188Y-47565266D01*
X154013975Y-47753870D01*
X153997403Y-47922133D01*
X153971242Y-47986921D01*
X153961681Y-47997660D01*
X151917181Y-50042161D01*
X151855858Y-50075646D01*
X151786166Y-50070662D01*
X151730233Y-50028790D01*
X151705816Y-49963326D01*
X151705500Y-49954480D01*
X151705500Y-49384313D01*
X151705499Y-49384298D01*
X151702598Y-49347432D01*
X151702597Y-49347426D01*
X151656745Y-49189606D01*
X151656744Y-49189602D01*
X151647170Y-49173413D01*
X151622768Y-49132150D01*
X151605500Y-49069030D01*
X151605500Y-47436519D01*
X151625185Y-47369480D01*
X151641819Y-47348838D01*
X152203838Y-46786819D01*
X152265161Y-46753334D01*
X152291519Y-46750500D01*
X154232098Y-46750500D01*
X154299137Y-46770185D01*
G37*
%TD.AperFunction*%
%TA.AperFunction,NonConductor*%
G36*
X153475520Y-52720185D02*
G01*
X153496162Y-52736819D01*
X153763181Y-53003838D01*
X153796666Y-53065161D01*
X153799500Y-53091519D01*
X153799500Y-56777288D01*
X153779815Y-56844327D01*
X153746624Y-56878863D01*
X153628594Y-56961508D01*
X153461505Y-57128597D01*
X153331575Y-57314158D01*
X153276998Y-57357783D01*
X153207500Y-57364977D01*
X153145145Y-57333454D01*
X153128425Y-57314158D01*
X152998494Y-57128597D01*
X152831402Y-56961506D01*
X152831395Y-56961501D01*
X152637834Y-56825967D01*
X152637830Y-56825965D01*
X152533442Y-56777288D01*
X152423663Y-56726097D01*
X152423659Y-56726096D01*
X152423655Y-56726094D01*
X152195413Y-56664938D01*
X152195403Y-56664936D01*
X151960001Y-56644341D01*
X151959999Y-56644341D01*
X151724596Y-56664936D01*
X151724583Y-56664939D01*
X151673567Y-56678608D01*
X151603717Y-56676944D01*
X151545855Y-56637781D01*
X151518352Y-56573552D01*
X151529939Y-56504650D01*
X151553796Y-56471150D01*
X151573081Y-56451865D01*
X151656744Y-56310398D01*
X151702598Y-56152569D01*
X151705500Y-56115694D01*
X151705500Y-54634306D01*
X151702598Y-54597431D01*
X151656744Y-54439602D01*
X151573081Y-54298135D01*
X151566294Y-54291348D01*
X151539415Y-54251122D01*
X151525775Y-54218190D01*
X151449114Y-54103458D01*
X151449112Y-54103455D01*
X151449111Y-54103454D01*
X150257837Y-52912181D01*
X150224352Y-52850858D01*
X150229336Y-52781166D01*
X150271208Y-52725233D01*
X150336672Y-52700816D01*
X150345518Y-52700500D01*
X153408481Y-52700500D01*
X153475520Y-52720185D01*
G37*
%TD.AperFunction*%
%TA.AperFunction,NonConductor*%
G36*
X148830519Y-53470185D02*
G01*
X148851161Y-53486819D01*
X149261695Y-53897353D01*
X149295180Y-53958676D01*
X149290196Y-54028368D01*
X149248324Y-54084301D01*
X149231264Y-54094196D01*
X149231317Y-54094285D01*
X149083137Y-54181917D01*
X149076969Y-54186702D01*
X149075072Y-54184256D01*
X149026358Y-54210857D01*
X148956666Y-54205873D01*
X148924296Y-54185069D01*
X148923031Y-54186702D01*
X148916862Y-54181917D01*
X148775396Y-54098255D01*
X148775393Y-54098254D01*
X148617573Y-54052402D01*
X148617567Y-54052401D01*
X148580701Y-54049500D01*
X148580694Y-54049500D01*
X148149306Y-54049500D01*
X148149298Y-54049500D01*
X148112432Y-54052401D01*
X148112426Y-54052402D01*
X147954606Y-54098254D01*
X147954603Y-54098255D01*
X147813137Y-54181917D01*
X147806969Y-54186702D01*
X147805072Y-54184256D01*
X147756358Y-54210857D01*
X147686666Y-54205873D01*
X147654296Y-54185069D01*
X147653031Y-54186702D01*
X147646862Y-54181917D01*
X147505396Y-54098255D01*
X147505393Y-54098254D01*
X147347573Y-54052402D01*
X147347567Y-54052401D01*
X147310701Y-54049500D01*
X147310694Y-54049500D01*
X146879306Y-54049500D01*
X146879298Y-54049500D01*
X146842432Y-54052401D01*
X146842426Y-54052402D01*
X146684606Y-54098254D01*
X146684603Y-54098255D01*
X146543137Y-54181917D01*
X146543129Y-54181923D01*
X146426923Y-54298129D01*
X146426917Y-54298137D01*
X146343255Y-54439603D01*
X146343254Y-54439606D01*
X146297402Y-54597426D01*
X146297401Y-54597432D01*
X146294500Y-54634298D01*
X146294500Y-56115701D01*
X146297401Y-56152567D01*
X146297402Y-56152573D01*
X146343254Y-56310393D01*
X146343255Y-56310396D01*
X146377232Y-56367848D01*
X146394500Y-56430969D01*
X146394500Y-56657282D01*
X146374815Y-56724321D01*
X146322906Y-56769664D01*
X146202168Y-56825966D01*
X146008597Y-56961505D01*
X145841505Y-57128597D01*
X145711575Y-57314158D01*
X145656998Y-57357783D01*
X145587500Y-57364977D01*
X145525145Y-57333454D01*
X145508425Y-57314158D01*
X145378494Y-57128597D01*
X145361819Y-57111922D01*
X145328334Y-57050599D01*
X145325500Y-57024241D01*
X145325500Y-54173347D01*
X145345185Y-54106308D01*
X145384401Y-54067810D01*
X145506156Y-53992712D01*
X145630212Y-53868656D01*
X145722314Y-53719334D01*
X145777499Y-53552797D01*
X145777499Y-53552793D01*
X145778412Y-53548533D01*
X145811699Y-53487102D01*
X145872914Y-53453419D01*
X145899663Y-53450500D01*
X148763480Y-53450500D01*
X148830519Y-53470185D01*
G37*
%TD.AperFunction*%
%TA.AperFunction,NonConductor*%
G36*
X155967005Y-48572076D02*
G01*
X155997721Y-48634832D01*
X155999500Y-48655759D01*
X155999500Y-57460803D01*
X155979815Y-57527842D01*
X155927011Y-57573597D01*
X155857853Y-57583541D01*
X155794297Y-57554516D01*
X155763118Y-57513208D01*
X155674035Y-57322171D01*
X155674034Y-57322169D01*
X155538494Y-57128597D01*
X155371404Y-56961508D01*
X155371402Y-56961506D01*
X155371401Y-56961505D01*
X155371396Y-56961501D01*
X155371393Y-56961499D01*
X155253376Y-56878861D01*
X155209751Y-56824284D01*
X155200500Y-56777287D01*
X155200500Y-52681004D01*
X155173581Y-52545677D01*
X155173580Y-52545676D01*
X155173580Y-52545672D01*
X155154662Y-52500000D01*
X155120778Y-52418195D01*
X155120776Y-52418191D01*
X155120775Y-52418189D01*
X155063059Y-52331811D01*
X155063057Y-52331808D01*
X155044116Y-52303459D01*
X155044114Y-52303457D01*
X154196546Y-51455888D01*
X154196545Y-51455887D01*
X154081807Y-51379222D01*
X153954332Y-51326421D01*
X153954322Y-51326418D01*
X153818996Y-51299500D01*
X153818994Y-51299500D01*
X153818993Y-51299500D01*
X152940519Y-51299500D01*
X152873480Y-51279815D01*
X152827725Y-51227011D01*
X152817781Y-51157853D01*
X152846806Y-51094297D01*
X152852838Y-51087819D01*
X153075008Y-50865649D01*
X154952339Y-48988316D01*
X155013660Y-48954833D01*
X155027855Y-48952597D01*
X155196132Y-48936024D01*
X155384727Y-48878814D01*
X155441035Y-48848717D01*
X155526752Y-48802900D01*
X155558538Y-48785910D01*
X155710883Y-48660883D01*
X155779646Y-48577094D01*
X155837392Y-48537760D01*
X155907237Y-48535889D01*
X155967005Y-48572076D01*
G37*
%TD.AperFunction*%
%TA.AperFunction,NonConductor*%
G36*
X155943365Y-58435416D02*
G01*
X155988700Y-58488581D01*
X155999500Y-58539196D01*
X155999500Y-59375500D01*
X155979815Y-59442539D01*
X155927011Y-59488294D01*
X155875500Y-59499500D01*
X155039196Y-59499500D01*
X154972157Y-59479815D01*
X154926402Y-59427011D01*
X154916458Y-59357853D01*
X154945483Y-59294297D01*
X154986791Y-59263118D01*
X155177830Y-59174035D01*
X155371401Y-59038495D01*
X155538495Y-58871401D01*
X155674035Y-58677830D01*
X155763118Y-58486790D01*
X155809290Y-58434352D01*
X155876484Y-58415200D01*
X155943365Y-58435416D01*
G37*
%TD.AperFunction*%
%TA.AperFunction,NonConductor*%
G36*
X153314855Y-58666546D02*
G01*
X153331575Y-58685842D01*
X153461500Y-58871395D01*
X153461505Y-58871401D01*
X153628599Y-59038495D01*
X153705135Y-59092086D01*
X153822165Y-59174032D01*
X153822167Y-59174033D01*
X153822170Y-59174035D01*
X154013209Y-59263118D01*
X154065648Y-59309290D01*
X154084800Y-59376484D01*
X154064584Y-59443365D01*
X154011419Y-59488700D01*
X153960804Y-59499500D01*
X152499196Y-59499500D01*
X152432157Y-59479815D01*
X152386402Y-59427011D01*
X152376458Y-59357853D01*
X152405483Y-59294297D01*
X152446791Y-59263118D01*
X152637830Y-59174035D01*
X152831401Y-59038495D01*
X152998495Y-58871401D01*
X153128425Y-58685842D01*
X153183002Y-58642217D01*
X153252500Y-58635023D01*
X153314855Y-58666546D01*
G37*
%TD.AperFunction*%
%TA.AperFunction,NonConductor*%
G36*
X150774855Y-58666546D02*
G01*
X150791575Y-58685842D01*
X150921500Y-58871395D01*
X150921505Y-58871401D01*
X151088599Y-59038495D01*
X151165135Y-59092086D01*
X151282165Y-59174032D01*
X151282167Y-59174033D01*
X151282170Y-59174035D01*
X151473209Y-59263118D01*
X151525648Y-59309290D01*
X151544800Y-59376484D01*
X151524584Y-59443365D01*
X151471419Y-59488700D01*
X151420804Y-59499500D01*
X149959196Y-59499500D01*
X149892157Y-59479815D01*
X149846402Y-59427011D01*
X149836458Y-59357853D01*
X149865483Y-59294297D01*
X149906791Y-59263118D01*
X150097830Y-59174035D01*
X150291401Y-59038495D01*
X150458495Y-58871401D01*
X150588425Y-58685842D01*
X150643002Y-58642217D01*
X150712500Y-58635023D01*
X150774855Y-58666546D01*
G37*
%TD.AperFunction*%
%TA.AperFunction,NonConductor*%
G36*
X148234855Y-58666546D02*
G01*
X148251575Y-58685842D01*
X148381500Y-58871395D01*
X148381505Y-58871401D01*
X148548599Y-59038495D01*
X148625135Y-59092086D01*
X148742165Y-59174032D01*
X148742167Y-59174033D01*
X148742170Y-59174035D01*
X148933209Y-59263118D01*
X148985648Y-59309290D01*
X149004800Y-59376484D01*
X148984584Y-59443365D01*
X148931419Y-59488700D01*
X148880804Y-59499500D01*
X147419196Y-59499500D01*
X147352157Y-59479815D01*
X147306402Y-59427011D01*
X147296458Y-59357853D01*
X147325483Y-59294297D01*
X147366791Y-59263118D01*
X147557830Y-59174035D01*
X147751401Y-59038495D01*
X147918495Y-58871401D01*
X148048425Y-58685842D01*
X148103002Y-58642217D01*
X148172500Y-58635023D01*
X148234855Y-58666546D01*
G37*
%TD.AperFunction*%
%TA.AperFunction,NonConductor*%
G36*
X145694855Y-58666546D02*
G01*
X145711575Y-58685842D01*
X145841500Y-58871395D01*
X145841505Y-58871401D01*
X146008599Y-59038495D01*
X146085135Y-59092086D01*
X146202165Y-59174032D01*
X146202167Y-59174033D01*
X146202170Y-59174035D01*
X146393209Y-59263118D01*
X146445648Y-59309290D01*
X146464800Y-59376484D01*
X146444584Y-59443365D01*
X146391419Y-59488700D01*
X146340804Y-59499500D01*
X144879196Y-59499500D01*
X144812157Y-59479815D01*
X144766402Y-59427011D01*
X144756458Y-59357853D01*
X144785483Y-59294297D01*
X144826791Y-59263118D01*
X145017830Y-59174035D01*
X145211401Y-59038495D01*
X145378495Y-58871401D01*
X145508425Y-58685842D01*
X145563002Y-58642217D01*
X145632500Y-58635023D01*
X145694855Y-58666546D01*
G37*
%TD.AperFunction*%
%TA.AperFunction,NonConductor*%
G36*
X143318030Y-58895030D02*
G01*
X143346285Y-58916181D01*
X143468599Y-59038495D01*
X143545135Y-59092086D01*
X143662165Y-59174032D01*
X143662167Y-59174033D01*
X143662170Y-59174035D01*
X143853209Y-59263118D01*
X143905648Y-59309290D01*
X143924800Y-59376484D01*
X143904584Y-59443365D01*
X143851419Y-59488700D01*
X143800804Y-59499500D01*
X142989269Y-59499500D01*
X142922230Y-59479815D01*
X142876475Y-59427011D01*
X142866531Y-59357853D01*
X142895556Y-59294297D01*
X142914958Y-59276234D01*
X143007187Y-59207190D01*
X143007190Y-59207187D01*
X143093350Y-59092093D01*
X143093354Y-59092086D01*
X143142422Y-58960529D01*
X143184293Y-58904595D01*
X143249757Y-58880178D01*
X143318030Y-58895030D01*
G37*
%TD.AperFunction*%
M02*
